<?xml version="1.0" encoding="UTF-8" standalone="no"?>
<svg
   enable-background="new"
   viewBox="0 0 16 16"
   version="1.1"
   id="svg27946"
   xmlns="http://www.w3.org/2000/svg"
   xmlns:svg="http://www.w3.org/2000/svg">
  <defs
     id="defs27938">
    <filter
       color-interpolation-filters="sRGB"
       height="1"
       id="a"
       width="1"
       x="0"
       y="0">
      <feBlend
         in2="BackgroundImage"
         mode="darken"
         id="feBlend27935" />
    </filter>
  </defs>
  <path
     d="M 3,0 C 1.339844,0 -4.5e-8,1.3398439 -4.5e-8,3 V 9.9999998 C -4.5e-8,11.660156 1.339844,13 3,13 h 10 c 1.660156,0 3,-1.339844 3,-3.0000002 V 3 C 16,1.3398439 14.660156,0 13,0 Z m 0,1.9999999 h 10 c 0.554688,0 1,0.445312 1,1 V 9.9999998 C 14,10.554688 13.554688,11 13,11 H 3 C 2.445312,11 2,10.554688 2,9.9999998 V 3 C 2,2.4453119 2.445312,1.9999999 3,1.9999999 Z M 5,14 c -1.105469,0 -2,0.894531 -2,2 h 10 c 0,-1.105469 -0.894531,-2 -2,-2 z m 0,0"
     fill="#2e3436"
     id="path29911" />
</svg>
