<?xml version="1.0" encoding="UTF-8" standalone="no"?>
<svg
   height="16px"
   viewBox="0 0 16 16"
   width="16px"
   version="1.1"
   id="svg1"
   sodipodi:docname="document-send-symbolic.svg"
   inkscape:version="1.3.2 (091e20ef0f, 2023-11-25)"
   xmlns:inkscape="http://www.inkscape.org/namespaces/inkscape"
   xmlns:sodipodi="http://sodipodi.sourceforge.net/DTD/sodipodi-0.dtd"
   xmlns="http://www.w3.org/2000/svg"
   xmlns:svg="http://www.w3.org/2000/svg">
  <defs
     id="defs1" />
  <sodipodi:namedview
     id="namedview1"
     pagecolor="#ffffff"
     bordercolor="#000000"
     borderopacity="0.25"
     inkscape:showpageshadow="2"
     inkscape:pageopacity="0.0"
     inkscape:pagecheckerboard="0"
     inkscape:deskcolor="#d1d1d1"
     inkscape:zoom="6.4357766"
     inkscape:cx="95.948017"
     inkscape:cy="53.373512"
     inkscape:window-width="2560"
     inkscape:window-height="1371"
     inkscape:window-x="0"
     inkscape:window-y="0"
     inkscape:window-maximized="1"
     inkscape:current-layer="svg1" />
  <path
     d="M 4,16 C 2.355469,16 1,14.644531 1,13 V 3 C 1,1.355469 2.355469,0 4,0 H 5 C 5.550781,0 6,0.449219 6,1 6,1.550781 5.550781,2 5,2 H 4 C 3.429688,2 3,2.429688 3,3 v 10 c 0,0.570312 0.429688,1 1,1 H 9.585938 L 13,10.585938 V 3 C 13,2.429688 12.570312,2 12,2 H 11 C 10.449219,2 10,1.550781 10,1 10,0.449219 10.449219,0 11,0 h 1 c 1.644531,0 3,1.355469 3,3 v 8 c 0,0.265625 -0.105469,0.519531 -0.292969,0.707031 l -4,4 C 10.519531,15.894531 10.265625,16 10,16 Z M 8,10 C 7.734375,10 7.480469,9.894531 7.292969,9.707031 l -3,-3 c -0.390625,-0.390625 -0.390625,-1.023437 0,-1.414062 0.390625,-0.390625 1.023437,-0.390625 1.414062,0 L 7,6.585938 V 0 h 2 v 6.585938 l 1.292969,-1.292969 c 0.390625,-0.390625 1.023437,-0.390625 1.414062,0 0.390625,0.390625 0.390625,1.023437 0,1.414062 l -3,3 C 8.519531,9.894531 8.265625,10 8,10 Z m 0,0"
     fill="#2e3436"
     fill-rule="evenodd"
     id="path1" />
</svg>
