<?xml version="1.0" encoding="UTF-8" standalone="no"?>
<svg
   height="16px"
   viewBox="0 0 16 16"
   width="16px"
   version="1.1"
   id="svg6727"
   sodipodi:docname="drag-drop.svg"
   inkscape:version="1.2.2 (b0a8486541, 2022-12-01)"
   xml:space="preserve"
   xmlns:inkscape="http://www.inkscape.org/namespaces/inkscape"
   xmlns:sodipodi="http://sodipodi.sourceforge.net/DTD/sodipodi-0.dtd"
   xmlns="http://www.w3.org/2000/svg"
   xmlns:svg="http://www.w3.org/2000/svg"><defs
     id="defs6731" /><sodipodi:namedview
     id="namedview6729"
     pagecolor="#ffffff"
     bordercolor="#000000"
     borderopacity="0.25"
     inkscape:showpageshadow="2"
     inkscape:pageopacity="0.0"
     inkscape:pagecheckerboard="0"
     inkscape:deskcolor="#d1d1d1"
     showgrid="false"
     inkscape:zoom="16.046875"
     inkscape:cx="9.285297"
     inkscape:cy="8.7555988"
     inkscape:window-width="2560"
     inkscape:window-height="1376"
     inkscape:window-x="0"
     inkscape:window-y="0"
     inkscape:window-maximized="1"
     inkscape:current-layer="svg6727"><inkscape:page
       x="0"
       y="0"
       width="16"
       height="16"
       id="page7529" /><inkscape:page
       x="26"
       y="0"
       width="16"
       height="16"
       id="page7531" /><inkscape:page
       x="52"
       y="0"
       width="16"
       height="16"
       id="page7592" /></sodipodi:namedview><path
     d="m 2.2002311,-0.08243624 c -1.25390701,0 -2.19921901,1.10156204 -2.19921901,2.31640604 v 1.683594 H 2.0010121 v -1.683594 c 0,-0.242187 0.125,-0.316406 0.199219,-0.316406 h 1.800781 v -2.00000004 z m 3.800781,0 V 1.9175638 h 3.9999999 v -2.00000004 z m 5.9999999,0 V 1.9175638 h 1.800781 c 0.07422,0 0.199219,0.074219 0.199219,0.316406 v 1.683594 h 2 v -1.683594 c 0,-1.214844 -0.945312,-2.31640604 -2.199219,-2.31640604 z M 0.00101209,5.9175638 v 4 H 2.0010121 v -4 z m 13.99999991,0 v 4 h 2 v -4 z M 0.00101209,11.917564 v 1.679688 c 0,1.21875 0.945312,2.320312 2.19921901,2.320312 h 1.800781 v -2 h -1.800781 c -0.074219,0 -0.199219,-0.07422 -0.199219,-0.320312 v -1.679688 z m 13.99999991,0 v 1.679688 c 0,0.246093 -0.125,0.320312 -0.199219,0.320312 h -1.800781 v 2 h 1.800781 c 1.253907,0 2.199219,-1.101562 2.199219,-2.320312 v -1.679688 z m -7.9999999,2 v 2 h 3.9999999 v -2 z m 0,0"
     id="path7519" /><path
     d="m 10.293981,7.292969 -3,3 h 1.414062 l -3,-3 c -0.390625,-0.390625 -1.023437,-0.390625 -1.414062,0 -0.390625,0.390625 -0.390625,1.023437 0,1.414062 l 3,3 c 0.390625,0.390625 1.023437,0.390625 1.414062,0 l 3.000001,-3 c 0.390625,-0.390625 0.390625,-1.023437 0,-1.414062 -0.390626,-0.390625 -1.023438,-0.390625 -1.414063,0 z m 0,0"
     id="path7578" /><path
     d="M 9.001012,11 V 5 c 0,-0.550781 -0.449219,-1 -1,-1 -0.550781,0 -1,0.449219 -1,1 v 6 c 0,0.550781 0.449219,1 1,1 0.550781,0 1,-0.449219 1,-1 z m 0,0"
     id="path7580" /></svg>
