<?xml version="1.0" encoding="UTF-8" standalone="no"?>
<svg
   height="16px"
   viewBox="0 0 16 16"
   width="16px"
   version="1.1"
   id="svg6727"
   sodipodi:docname="keyboard-caps-lock-wide-symbolic.svg"
   inkscape:version="1.2.2 (b0a8486541, 2022-12-01)"
   xmlns:inkscape="http://www.inkscape.org/namespaces/inkscape"
   xmlns:sodipodi="http://sodipodi.sourceforge.net/DTD/sodipodi-0.dtd"
   xmlns="http://www.w3.org/2000/svg"
   xmlns:svg="http://www.w3.org/2000/svg">
  <defs
     id="defs6731" />
  <sodipodi:namedview
     id="namedview6729"
     pagecolor="#ffffff"
     bordercolor="#000000"
     borderopacity="0.25"
     inkscape:showpageshadow="2"
     inkscape:pageopacity="0.0"
     inkscape:pagecheckerboard="0"
     inkscape:deskcolor="#d1d1d1"
     showgrid="false"
     inkscape:zoom="64.1875"
     inkscape:cx="7.9922103"
     inkscape:cy="8.0155794"
     inkscape:window-width="2560"
     inkscape:window-height="1376"
     inkscape:window-x="0"
     inkscape:window-y="0"
     inkscape:window-maximized="1"
     inkscape:current-layer="svg6727" />
  <path
     d="m 8.0467314,15.987876 c 0.273437,0.0078 0.539062,-0.09766 0.734375,-0.292969 L 15.851418,8.6245947 c 0.285157,-0.285156 0.371094,-0.714844 0.214844,-1.089844 -0.152344,-0.375 -0.515625,-0.617187 -0.921875,-0.617187 h -2 V 0.91756375 c 0,-0.55078099 -0.449219,-0.99999999 -1,-0.99999999 H 4.1443876 c -0.550781,0 -1,0.449219 -1,0.99999999 V 6.9175637 h -2.140625 c -0.40625,0 -0.769531,0.242187 -0.925781,0.617187 -0.15625,0.375 -0.07031,0.804688 0.21875,1.089844 l 7.0703118,7.0703123 c 0.179688,0.179688 0.421875,0.285156 0.679688,0.292969 z M 8.0740754,13.573814 3.4178256,8.9175637 h 0.726562 c 0.550781,0 1,-0.449219 1,-1 v -2.011719 h 5.9999994 v 2.011719 c 0,0.550781 0.449219,1 1,1 h 0.585938 z M 11.144387,3.9058447 H 5.1443876 v -1.988281 h 5.9999994 z m 0,0"
     id="path6725" />
</svg>
