<?xml version="1.0" encoding="UTF-8" standalone="no"?>
<svg
   width="16px"
   height="16px"
   viewBox="0 0 16 16"
   version="1.1"
   id="svg13"
   sodipodi:docname="test-symbolic.svg"
   xml:space="preserve"
   inkscape:version="1.2.2 (b0a8486541, 2022-12-01)"
   xmlns:inkscape="http://www.inkscape.org/namespaces/inkscape"
   xmlns:sodipodi="http://sodipodi.sourceforge.net/DTD/sodipodi-0.dtd"
   xmlns="http://www.w3.org/2000/svg"
   xmlns:svg="http://www.w3.org/2000/svg"><defs
     id="defs17" /><sodipodi:namedview
     id="namedview15"
     pagecolor="#ffffff"
     bordercolor="#000000"
     borderopacity="0.25"
     inkscape:showpageshadow="2"
     inkscape:pageopacity="0.0"
     inkscape:pagecheckerboard="0"
     inkscape:deskcolor="#d1d1d1"
     showgrid="false"
     inkscape:zoom="32"
     inkscape:cx="11.09375"
     inkscape:cy="12.453125"
     inkscape:window-width="2560"
     inkscape:window-height="1376"
     inkscape:window-x="0"
     inkscape:window-y="0"
     inkscape:window-maximized="1"
     inkscape:current-layer="svg13" /><path
     d="M 12.543749,11.962325 V 11.02187 c -0.625145,-0.170805 -1.020072,-0.218818 -1.218861,-0.58749 v -2.92e-4 c -0.199547,-0.369838 0.03786,-0.6209572 0.320713,-1.0786702 l -0.865207,-0.664894 c -0.591067,0.215908 -0.921245,0.4001 -1.40364,0.24646 H 9.376376 C 8.895874,8.7839288 8.83302,8.4783968 8.611892,8.0003128 H 7.3881066 C 7.1677338,8.4760688 7.104501,8.7836368 6.623621,8.9369838 h -3.783e-4 c -0.4812599,0.15364 -0.8072729,-0.02851 -1.4036406,-0.24646 L 4.3543962,9.3554178 C 4.636487,9.8116768 4.8750337,10.063669 4.6751095,10.434088 4.4755621,10.803927 4.075334,10.852519 3.4562482,11.02187 v 0.940455 c 0.61795,0.16877 1.0193139,0.217945 1.2188613,0.587491 0.2006824,0.373039 -0.043167,0.630269 -0.3207133,1.078672 l 0.8652059,0.665185 c 0.5914447,-0.216201 0.9216241,-0.4001 1.4036406,-0.246462 h 3.783e-4 c 0.48088,0.153057 0.5437345,0.459461 0.7644856,0.936671 H 8.611892 c 0.220369,-0.476048 0.283982,-0.782741 0.767513,-0.937543 h 3.79e-4 c 0.47785,-0.152476 0.802729,0.02939 1.400231,0.247624 l 0.865208,-0.665184 c -0.281715,-0.454806 -0.520639,-0.707961 -0.321092,-1.078379 0.199546,-0.36984 0.60129,-0.419014 1.219618,-0.588075 z m -4.5437507,0.693701 c -0.8364293,0 -1.5145821,-0.521149 -1.5145821,-1.163928 0,-0.642779 0.6781528,-1.163929 1.5145821,-1.163929 0.8364297,0 1.5145817,0.52115 1.5145817,1.163929 0,0.642779 -0.678152,1.163928 -1.5145817,1.163928 z"
     id="path1580"
     style="mix-blend-mode:lighten;stroke-width:0.331933" /><rect
     style="fill:#000000;fill-opacity:1;stroke:#000000;stroke-width:1.07266;stroke-opacity:0"
     id="rect2200"
     width="3.3209326"
     height="5.0778828"
     x="6.3395319"
     y="1.552448" /><path
     id="path2471"
     style="mix-blend-mode:lighten;fill:#000000;fill-opacity:1;stroke:#000000;stroke-width:1.39273;stroke-opacity:0"
     inkscape:transform-center-y="0.79530876"
     d="M 4.2603891,6.4139044 H 11.739611 L 8.0000007,11.185758 Z" /></svg>
