<?xml version="1.0" encoding="UTF-8" standalone="no"?>
<svg
   viewBox="0 0 128 128"
   version="1.1"
   id="svg177"
   sodipodi:docname="it.mijorus.gearlever.svg"
   inkscape:version="1.2.2 (b0a84865, 2022-12-01)"
   xml:space="preserve"
   xmlns:inkscape="http://www.inkscape.org/namespaces/inkscape"
   xmlns:sodipodi="http://sodipodi.sourceforge.net/DTD/sodipodi-0.dtd"
   xmlns:xlink="http://www.w3.org/1999/xlink"
   xmlns="http://www.w3.org/2000/svg"
   xmlns:svg="http://www.w3.org/2000/svg"><sodipodi:namedview
     id="namedview179"
     pagecolor="#ffffff"
     bordercolor="#000000"
     borderopacity="0.25"
     inkscape:showpageshadow="2"
     inkscape:pageopacity="0.0"
     inkscape:pagecheckerboard="0"
     inkscape:deskcolor="#d1d1d1"
     showgrid="false"
     inkscape:zoom="4.8505847"
     inkscape:cx="82.361205"
     inkscape:cy="40.30442"
     inkscape:window-width="1430"
     inkscape:window-height="775"
     inkscape:window-x="5"
     inkscape:window-y="30"
     inkscape:window-maximized="0"
     inkscape:current-layer="surface449"><inkscape:page
       x="0"
       y="0"
       width="128"
       height="128"
       id="page4446" /><inkscape:page
       x="138"
       y="0"
       width="170.66667"
       height="170.66667"
       id="page4448" /></sodipodi:namedview><defs
     id="defs120"><linearGradient
       inkscape:collect="always"
       id="linearGradient4826"><stop
         style="stop-color:#a7aaac;stop-opacity:1;"
         offset="0"
         id="stop4822" /><stop
         style="stop-color:#c2c5c7;stop-opacity:1;"
         offset="1"
         id="stop4824" /></linearGradient><linearGradient
       id="linearGradient1966"
       gradientUnits="userSpaceOnUse"
       x1="-0.040162001"
       y1="0.99435699"
       x2="-0.040162001"
       y2="0.0054060002"
       gradientTransform="matrix(0,51.477591,-84.082726,0,106.03078,37.350773)"
       spreadMethod="pad"><stop
         offset="0"
         style="stop-color:#2e4a5a;stop-opacity:1;"
         id="stop1952" /><stop
         offset="0.019"
         style="stop-color: rgb(240, 240, 241);"
         id="stop1954" /><stop
         offset="0.055"
         style="stop-color:#2e4a5a;stop-opacity:1;"
         id="stop1956" /><stop
         offset="0.207"
         style="stop-color:#9dabaf;stop-opacity:1;"
         id="stop1958" /><stop
         offset="0.90799999"
         style="stop-color:#2e4a5a;stop-opacity:1;"
         id="stop1960" /><stop
         offset="0.986"
         style="stop-opacity: 1; stop-color: rgb(240, 240, 241);"
         id="stop1962" /><stop
         offset="1"
         style="stop-color:#2e4a5a;stop-opacity:1;"
         id="stop1964" /></linearGradient><linearGradient
       id="linearGradient9544"
       gradientUnits="userSpaceOnUse"
       x1="-0.040162001"
       y1="0.99435699"
       x2="-0.040162001"
       y2="0.0054060002"
       gradientTransform="matrix(0,51.477591,-84.082726,0,106.03078,37.350773)"
       spreadMethod="pad"><stop
         offset="0"
         style="stop-color:#2e4a5a;stop-opacity:1;"
         id="stop9530" /><stop
         offset="0.019"
         style="stop-color: rgb(240, 240, 241);"
         id="stop9532" /><stop
         offset="0.055"
         style="stop-color:#2e4a5a;stop-opacity:1;"
         id="stop9534" /><stop
         offset="0.207"
         style="stop-color:#2e4a5a;stop-opacity:1;"
         id="stop9536" /><stop
         offset="0.90799999"
         style="stop-color:#2e4a5a;stop-opacity:1;"
         id="stop9538" /><stop
         offset="0.986"
         style="stop-opacity: 1; stop-color: rgb(240, 240, 241);"
         id="stop9540" /><stop
         offset="1"
         style="stop-color:#2e4a5a;stop-opacity:1;"
         id="stop9542" /></linearGradient><linearGradient
       id="linearGradient9163"
       gradientUnits="userSpaceOnUse"
       x1="-0.040162001"
       y1="0.99435699"
       x2="-0.040162001"
       y2="0.0054060002"
       gradientTransform="matrix(0,51.477591,-84.082726,0,106.03078,37.350773)"
       spreadMethod="pad"><stop
         offset="0"
         style="stop-color:#dddddd;stop-opacity:1;"
         id="stop9149" /><stop
         offset="0.019"
         style="stop-color: rgb(240, 240, 241);"
         id="stop9151" /><stop
         offset="0.055"
         style="stop-opacity: 1; stop-color: rgb(66, 125, 161);"
         id="stop9153" /><stop
         offset="0.207"
         style="stop-opacity: 1; stop-color: rgb(66, 125, 161);"
         id="stop9155" /><stop
         offset="0.908"
         style="stop-opacity: 1; stop-color: rgb(66, 125, 161);"
         id="stop9157" /><stop
         offset="0.986"
         style="stop-opacity: 1; stop-color: rgb(240, 240, 241);"
         id="stop9159" /><stop
         offset="1"
         style="stop-opacity: 1; stop-color: rgb(66, 125, 161);"
         id="stop9161" /></linearGradient><linearGradient
       id="linearGradient9147"
       gradientUnits="userSpaceOnUse"
       x1="-0.040162001"
       y1="0.99435699"
       x2="-0.040162001"
       y2="0.0054060002"
       gradientTransform="matrix(0,51.477591,-84.082726,0,106.03078,37.350773)"
       spreadMethod="pad"><stop
         offset="0"
         style="stop-opacity: 1; stop-color: rgb(66, 125, 161);"
         id="stop9133" /><stop
         offset="0.019"
         style="stop-color: rgb(240, 240, 241);"
         id="stop9135" /><stop
         offset="0.055"
         style="stop-color:#42da1f;stop-opacity:1;"
         id="stop9137" /><stop
         offset="0.207"
         style="stop-opacity: 1; stop-color: rgb(66, 125, 161);"
         id="stop9139" /><stop
         offset="0.908"
         style="stop-opacity: 1; stop-color: rgb(66, 125, 161);"
         id="stop9141" /><stop
         offset="0.986"
         style="stop-opacity: 1; stop-color: rgb(240, 240, 241);"
         id="stop9143" /><stop
         offset="1"
         style="stop-opacity: 1; stop-color: rgb(66, 125, 161);"
         id="stop9145" /></linearGradient><linearGradient
       id="linearGradient9131"
       gradientUnits="userSpaceOnUse"
       x1="-0.040162001"
       y1="0.99435699"
       x2="-0.040162001"
       y2="0.0054060002"
       gradientTransform="matrix(0,51.477591,-84.082726,0,106.03078,37.350773)"
       spreadMethod="pad"><stop
         offset="0"
         style="stop-opacity: 1; stop-color: rgb(66, 125, 161);"
         id="stop9117" /><stop
         offset="0.019"
         style="stop-color: rgb(240, 240, 241);"
         id="stop9119" /><stop
         offset="0.055"
         style="stop-color:#333333;stop-opacity:1;"
         id="stop9121" /><stop
         offset="0.207"
         style="stop-opacity: 1; stop-color: rgb(66, 125, 161);"
         id="stop9123" /><stop
         offset="0.908"
         style="stop-opacity: 1; stop-color: rgb(66, 125, 161);"
         id="stop9125" /><stop
         offset="0.986"
         style="stop-opacity: 1; stop-color: rgb(240, 240, 241);"
         id="stop9127" /><stop
         offset="1"
         style="stop-opacity: 1; stop-color: rgb(66, 125, 161);"
         id="stop9129" /></linearGradient><linearGradient
       id="linearGradient8389"
       gradientUnits="userSpaceOnUse"
       x1="-0.040162001"
       y1="0.99435699"
       x2="-0.040162001"
       y2="0.0054060002"
       gradientTransform="matrix(0,51.477591,-84.082726,0,106.03078,37.350773)"
       spreadMethod="pad"><stop
         offset="0"
         style="stop-color:#47da1f;stop-opacity:1;"
         id="stop8375" /><stop
         offset="0.019"
         style="stop-color: rgb(240, 240, 241);"
         id="stop8377" /><stop
         offset="0.055"
         style="stop-opacity: 1; stop-color: rgb(66, 125, 161);"
         id="stop8379" /><stop
         offset="0.207"
         style="stop-opacity: 1; stop-color: rgb(66, 125, 161);"
         id="stop8381" /><stop
         offset="0.908"
         style="stop-opacity: 1; stop-color: rgb(66, 125, 161);"
         id="stop8383" /><stop
         offset="0.986"
         style="stop-opacity: 1; stop-color: rgb(240, 240, 241);"
         id="stop8385" /><stop
         offset="1"
         style="stop-opacity: 1; stop-color: rgb(66, 125, 161);"
         id="stop8387" /></linearGradient><linearGradient
       id="linearGradient8373"
       gradientUnits="userSpaceOnUse"
       x1="-0.040162001"
       y1="0.99435699"
       x2="-0.040162001"
       y2="0.0054060002"
       gradientTransform="matrix(0,51.477591,-84.082726,0,106.03078,37.350773)"
       spreadMethod="pad"><stop
         offset="0"
         style="stop-color:#dddddd;stop-opacity:1;"
         id="stop8359" /><stop
         offset="0.019"
         style="stop-color: rgb(240, 240, 241);"
         id="stop8361" /><stop
         offset="0.055"
         style="stop-opacity: 1; stop-color: rgb(66, 125, 161);"
         id="stop8363" /><stop
         offset="0.207"
         style="stop-opacity: 1; stop-color: rgb(66, 125, 161);"
         id="stop8365" /><stop
         offset="0.908"
         style="stop-opacity: 1; stop-color: rgb(66, 125, 161);"
         id="stop8367" /><stop
         offset="0.986"
         style="stop-opacity: 1; stop-color: rgb(240, 240, 241);"
         id="stop8369" /><stop
         offset="1"
         style="stop-opacity: 1; stop-color: rgb(66, 125, 161);"
         id="stop8371" /></linearGradient><linearGradient
       id="linearGradient8357"
       gradientUnits="userSpaceOnUse"
       x1="-0.040162001"
       y1="0.99435699"
       x2="-0.040162001"
       y2="0.0054060002"
       gradientTransform="matrix(0,51.477591,-84.082726,0,106.03078,37.350773)"
       spreadMethod="pad"><stop
         offset="0"
         style="stop-opacity: 1; stop-color: rgb(66, 125, 161);"
         id="stop8343" /><stop
         offset="0.019"
         style="stop-color: rgb(240, 240, 241);"
         id="stop8345" /><stop
         offset="0.055"
         style="stop-color:#000000;stop-opacity:1;"
         id="stop8347" /><stop
         offset="0.207"
         style="stop-opacity: 1; stop-color: rgb(66, 125, 161);"
         id="stop8349" /><stop
         offset="0.908"
         style="stop-opacity: 1; stop-color: rgb(66, 125, 161);"
         id="stop8351" /><stop
         offset="0.986"
         style="stop-opacity: 1; stop-color: rgb(240, 240, 241);"
         id="stop8353" /><stop
         offset="1"
         style="stop-opacity: 1; stop-color: rgb(66, 125, 161);"
         id="stop8355" /></linearGradient><linearGradient
       id="linearGradient8341"
       gradientUnits="userSpaceOnUse"
       x1="-0.040162001"
       y1="0.99435699"
       x2="-0.040162001"
       y2="0.0054060002"
       gradientTransform="matrix(0,51.477591,-84.082726,0,106.03078,37.350773)"
       spreadMethod="pad"><stop
         offset="0"
         style="stop-color:#2e4a5a;stop-opacity:1;"
         id="stop8327" /><stop
         offset="0.019"
         style="stop-color: rgb(240, 240, 241);"
         id="stop8329" /><stop
         offset="0.055"
         style="stop-opacity: 1; stop-color: rgb(66, 125, 161);"
         id="stop8331" /><stop
         offset="0.207"
         style="stop-opacity: 1; stop-color: rgb(66, 125, 161);"
         id="stop8333" /><stop
         offset="0.908"
         style="stop-opacity: 1; stop-color: rgb(66, 125, 161);"
         id="stop8335" /><stop
         offset="0.986"
         style="stop-opacity: 1; stop-color: rgb(240, 240, 241);"
         id="stop8337" /><stop
         offset="1"
         style="stop-opacity: 1; stop-color: rgb(66, 125, 161);"
         id="stop8339" /></linearGradient><linearGradient
       id="linearGradient8325"
       gradientUnits="userSpaceOnUse"
       x1="-0.040162001"
       y1="0.99435699"
       x2="-0.040162001"
       y2="0.0054060002"
       gradientTransform="matrix(0,51.477591,-84.082726,0,106.03078,37.350773)"
       spreadMethod="pad"><stop
         offset="0"
         style="stop-color:#2e4a5a;stop-opacity:1;"
         id="stop8311" /><stop
         offset="0.019"
         style="stop-color: rgb(240, 240, 241);"
         id="stop8313" /><stop
         offset="0.055"
         style="stop-opacity: 1; stop-color: rgb(66, 125, 161);"
         id="stop8315" /><stop
         offset="0.207"
         style="stop-opacity: 1; stop-color: rgb(66, 125, 161);"
         id="stop8317" /><stop
         offset="0.908"
         style="stop-opacity: 1; stop-color: rgb(66, 125, 161);"
         id="stop8319" /><stop
         offset="0.986"
         style="stop-opacity: 1; stop-color: rgb(240, 240, 241);"
         id="stop8321" /><stop
         offset="1"
         style="stop-opacity: 1; stop-color: rgb(66, 125, 161);"
         id="stop8323" /></linearGradient><linearGradient
       id="linearGradient8293"
       gradientUnits="userSpaceOnUse"
       x1="-0.040162001"
       y1="0.99435699"
       x2="-0.040162001"
       y2="0.0054060002"
       gradientTransform="matrix(0,51.477591,-84.082726,0,106.03078,37.350773)"
       spreadMethod="pad"><stop
         offset="0"
         style="stop-color:#427d1f;stop-opacity:1;"
         id="stop8279" /><stop
         offset="0.019"
         style="stop-color: rgb(240, 240, 241);"
         id="stop8281" /><stop
         offset="0.055"
         style="stop-opacity: 1; stop-color: rgb(66, 125, 161);"
         id="stop8283" /><stop
         offset="0.207"
         style="stop-opacity: 1; stop-color: rgb(66, 125, 161);"
         id="stop8285" /><stop
         offset="0.908"
         style="stop-opacity: 1; stop-color: rgb(66, 125, 161);"
         id="stop8287" /><stop
         offset="0.986"
         style="stop-opacity: 1; stop-color: rgb(240, 240, 241);"
         id="stop8289" /><stop
         offset="1"
         style="stop-opacity: 1; stop-color: rgb(66, 125, 161);"
         id="stop8291" /></linearGradient><linearGradient
       id="linearGradient8277"
       gradientUnits="userSpaceOnUse"
       x1="-0.040162001"
       y1="0.99435699"
       x2="-0.040162001"
       y2="0.0054060002"
       gradientTransform="matrix(0,51.477591,-84.082726,0,106.03078,37.350773)"
       spreadMethod="pad"><stop
         offset="0"
         style="stop-color:#2e4a5a;stop-opacity:1;"
         id="stop8263" /><stop
         offset="0.019"
         style="stop-color: rgb(240, 240, 241);"
         id="stop8265" /><stop
         offset="0.055"
         style="stop-opacity: 1; stop-color: rgb(66, 125, 161);"
         id="stop8267" /><stop
         offset="0.207"
         style="stop-opacity: 1; stop-color: rgb(66, 125, 161);"
         id="stop8269" /><stop
         offset="0.908"
         style="stop-opacity: 1; stop-color: rgb(66, 125, 161);"
         id="stop8271" /><stop
         offset="0.986"
         style="stop-opacity: 1; stop-color: rgb(240, 240, 241);"
         id="stop8273" /><stop
         offset="1"
         style="stop-opacity: 1; stop-color: rgb(66, 125, 161);"
         id="stop8275" /></linearGradient><linearGradient
       id="linearGradient8261"
       gradientUnits="userSpaceOnUse"
       x1="-0.040162001"
       y1="0.99435699"
       x2="-0.040162001"
       y2="0.0054060002"
       gradientTransform="matrix(0,51.477591,-84.082726,0,106.03078,37.350773)"
       spreadMethod="pad"><stop
         offset="0"
         style="stop-color:#2e4a5a;stop-opacity:1;"
         id="stop8247" /><stop
         offset="0.019"
         style="stop-color: rgb(240, 240, 241);"
         id="stop8249" /><stop
         offset="0.055"
         style="stop-opacity: 1; stop-color: rgb(66, 125, 161);"
         id="stop8251" /><stop
         offset="0.207"
         style="stop-opacity: 1; stop-color: rgb(66, 125, 161);"
         id="stop8253" /><stop
         offset="0.908"
         style="stop-opacity: 1; stop-color: rgb(66, 125, 161);"
         id="stop8255" /><stop
         offset="0.986"
         style="stop-opacity: 1; stop-color: rgb(240, 240, 241);"
         id="stop8257" /><stop
         offset="1"
         style="stop-opacity: 1; stop-color: rgb(66, 125, 161);"
         id="stop8259" /></linearGradient><linearGradient
       id="linearGradient8245"
       gradientUnits="userSpaceOnUse"
       x1="-0.040162001"
       y1="0.99435699"
       x2="-0.040162001"
       y2="0.0054060002"
       gradientTransform="matrix(0,51.477591,-84.082726,0,106.03078,37.350773)"
       spreadMethod="pad"><stop
         offset="0"
         style="stop-color:#2e4a5a;stop-opacity:1;"
         id="stop8231" /><stop
         offset="0.019"
         style="stop-color: rgb(240, 240, 241);"
         id="stop8233" /><stop
         offset="0.055"
         style="stop-opacity: 1; stop-color: rgb(66, 125, 161);"
         id="stop8235" /><stop
         offset="0.207"
         style="stop-opacity: 1; stop-color: rgb(66, 125, 161);"
         id="stop8237" /><stop
         offset="0.908"
         style="stop-opacity: 1; stop-color: rgb(66, 125, 161);"
         id="stop8239" /><stop
         offset="0.986"
         style="stop-opacity: 1; stop-color: rgb(240, 240, 241);"
         id="stop8241" /><stop
         offset="1"
         style="stop-opacity: 1; stop-color: rgb(66, 125, 161);"
         id="stop8243" /></linearGradient><linearGradient
       id="linearGradient8229"
       gradientUnits="userSpaceOnUse"
       x1="-0.040162001"
       y1="0.99435699"
       x2="-0.040162001"
       y2="0.0054060002"
       gradientTransform="matrix(0,51.477591,-84.082726,0,106.03078,37.350773)"
       spreadMethod="pad"><stop
         offset="0"
         style="stop-color:#2e4a5a;stop-opacity:1;"
         id="stop8215" /><stop
         offset="0.019"
         style="stop-color: rgb(240, 240, 241);"
         id="stop8217" /><stop
         offset="0.055"
         style="stop-opacity: 1; stop-color: rgb(66, 125, 161);"
         id="stop8219" /><stop
         offset="0.207"
         style="stop-opacity: 1; stop-color: rgb(66, 125, 161);"
         id="stop8221" /><stop
         offset="0.908"
         style="stop-opacity: 1; stop-color: rgb(66, 125, 161);"
         id="stop8223" /><stop
         offset="0.986"
         style="stop-opacity: 1; stop-color: rgb(240, 240, 241);"
         id="stop8225" /><stop
         offset="1"
         style="stop-opacity: 1; stop-color: rgb(66, 125, 161);"
         id="stop8227" /></linearGradient><linearGradient
       id="linearGradient8213"
       gradientUnits="userSpaceOnUse"
       x1="-0.040162"
       y1="0.994357"
       x2="-0.040162"
       y2="0.005406"
       gradientTransform="matrix(0,51.477591,-84.082726,0,106.030785,37.350773)"><stop
         offset="0"
         style="stop-color:#2e4a5a;stop-opacity:1;"
         id="stop8199" /><stop
         offset="0.019"
         style="stop-color: rgb(240, 240, 241);"
         id="stop8201" /><stop
         offset="0.055"
         style="stop-opacity: 1; stop-color: rgb(66, 125, 161);"
         id="stop8203" /><stop
         offset="0.207"
         style="stop-opacity: 1; stop-color: rgb(66, 125, 161);"
         id="stop8205" /><stop
         offset="0.908"
         style="stop-opacity: 1; stop-color: rgb(66, 125, 161);"
         id="stop8207" /><stop
         offset="0.986"
         style="stop-opacity: 1; stop-color: rgb(240, 240, 241);"
         id="stop8209" /><stop
         offset="1"
         style="stop-opacity: 1; stop-color: rgb(66, 125, 161);"
         id="stop8211" /></linearGradient><linearGradient
       id="linearGradient4989"
       gradientUnits="userSpaceOnUse"
       x1="-0.040162"
       y1="0.994357"
       x2="-0.040162"
       y2="0.005406"
       gradientTransform="matrix(0,51.477591,-84.082726,0,106.030785,37.350773)"><stop
         offset="0.90799999"
         style="stop-color:#284b60;stop-opacity:1;"
         id="stop4983" /><stop
         offset="0.986"
         style="stop-opacity: 1; stop-color: rgb(240, 240, 241);"
         id="stop4985" /><stop
         offset="1"
         style="stop-opacity: 1; stop-color: rgb(66, 125, 161);"
         id="stop4987" /></linearGradient><radialGradient
       id="radial0"
       gradientUnits="userSpaceOnUse"
       cx="63.999996"
       cy="89.047478"
       r="52.956203"
       gradientTransform="matrix(1.000001,0,0,0.796791,-0.0000773185,14.129123)"><stop
         offset="0.4535"
         style="stop-color:rgb(69.803923%,69.803923%,69.803923%);stop-opacity:1;"
         id="stop2" /><stop
         offset="0.75652176"
         style="stop-color:#cfcfcf;stop-opacity:1;"
         id="stop2177" /><stop
         offset="0.9130435"
         style="stop-color:#8b8b8b;stop-opacity:1;"
         id="stop4" /></radialGradient><radialGradient
       id="radial1"
       gradientUnits="userSpaceOnUse"
       cx="64"
       cy="85.972267"
       r="52.956207"
       gradientTransform="matrix(1,0,0,0.758736,-0.000002,17.835844)"><stop
         offset="0"
         style="stop-color:rgb(75.686276%,75.686276%,75.686276%);stop-opacity:1;"
         id="stop7" /><stop
         offset="1"
         style="stop-color:rgb(65.490198%,65.490198%,65.490198%);stop-opacity:1;"
         id="stop9" /></radialGradient><linearGradient
       id="linear0"
       gradientUnits="userSpaceOnUse"
       x1="95.556961"
       y1="288.832336"
       x2="30.610176"
       y2="288.832336"
       gradientTransform="matrix(-0.77138, 0, -0.015419, -2.645263, 510.788797, 1635.237447)"><stop
         offset="0"
         style="stop-color:rgb(16.862746%,50.196081%,50.196081%);stop-opacity:1;"
         id="stop12" /><stop
         offset="0.0336"
         style="stop-color:rgb(76.078433%,92.941177%,92.941177%);stop-opacity:1;"
         id="stop14" /><stop
         offset="0.0854"
         style="stop-color:rgb(46.27451%,71.764708%,70.588237%);stop-opacity:1;"
         id="stop16" /><stop
         offset="0.2276"
         style="stop-color:rgb(16.470589%,50.588238%,48.627451%);stop-opacity:1;"
         id="stop18" /><stop
         offset="0.8908"
         style="stop-color:rgb(21.960784%,66.666669%,74.901962%);stop-opacity:1;"
         id="stop20" /><stop
         offset="0.9454"
         style="stop-color:rgb(71.764708%,85.09804%,98.823529%);stop-opacity:1;"
         id="stop22" /><stop
         offset="1"
         style="stop-color:rgb(18.82353%,56.862748%,52.549022%);stop-opacity:1;"
         id="stop24" /></linearGradient><clipPath
       id="clip1"><rect
         x="0"
         y="0"
         width="128"
         height="128"
         id="rect27" /></clipPath><mask
       id="mask0"><g
         filter="url(#alpha)"
         id="g32"><rect
           x="0"
           y="0"
           width="128"
           height="128"
           style="fill:rgb(0%,0%,0%);fill-opacity:0.929078;stroke:none;"
           id="rect30" /></g></mask><filter
       id="alpha"
       filterUnits="objectBoundingBox"
       x="0"
       y="0"
       width="1"
       height="1"><feColorMatrix
         type="matrix"
         in="SourceGraphic"
         values="0 0 0 0 1 0 0 0 0 1 0 0 0 0 1 0 0 0 1 0"
         id="feColorMatrix35" /></filter><clipPath
       id="clip2"><path
         d="M 21.945312 37 L 106.050781 37 L 106.050781 89 L 21.945312 89 Z M 21.945312 37 "
         id="path38" /></clipPath><linearGradient
       id="linear1"
       gradientUnits="userSpaceOnUse"
       x1="-0.040162"
       y1="0.994357"
       x2="-0.040162"
       y2="0.005406"
       gradientTransform="matrix(0,51.477591,-84.082726,0,106.030785,37.350773)"
       xlink:href="#linearGradient9163"><stop
         offset="0"
         style="stop-color:#2e4a5a;stop-opacity:1;"
         id="stop41" /><stop
         offset="0.0427581"
         style="stop-color: rgb(240, 240, 241);"
         id="stop43" /><stop
         offset="0.08955724"
         style="stop-color:#2e4a5a;stop-opacity:1;"
         id="stop45" /><stop
         offset="0.207"
         style="stop-color:#2e4a5a;stop-opacity:1;"
         id="stop47" /><stop
         offset="0.90799999"
         style="stop-color:#2e4a5a;stop-opacity:1;"
         id="stop49" /><stop
         offset="0.95360261"
         style="stop-opacity: 1; stop-color: rgb(240, 240, 241);"
         id="stop51" /><stop
         offset="1"
         style="stop-color:#2e4a5a;stop-opacity:1;"
         id="stop53" /></linearGradient><clipPath
       id="clip7"><path
         d="M 21.945312 40.488281 L 106.050781 40.488281 L 106.050781 92.855469 L 21.945312 92.855469 Z M 21.945312 40.488281 "
         id="path56" /></clipPath><clipPath
       id="clip8"><path
         d="M 106.050781 49.59375 C 106.128906 47.25 104.828125 44.988281 102.4375 43.3125 C 100.046875 41.636719 96.773438 40.695312 93.351562 40.695312 L 79.871094 40.695312 C 74.585938 40.695312 69.296875 40.699219 64.011719 40.695312 L 50.921875 40.695312 C 45.507812 40.695312 40.089844 40.699219 34.675781 40.695312 C 33.386719 40.675781 32.125 40.816406 30.921875 41.082031 C 30.910156 41.082031 30.902344 41.085938 30.886719 41.089844 C 30.554688 41.164062 30.222656 41.242188 29.894531 41.335938 C 29.613281 41.417969 29.332031 41.507812 29.054688 41.601562 C 29.027344 41.609375 29 41.625 28.964844 41.628906 C 28.835938 41.671875 28.710938 41.714844 28.582031 41.761719 C 27.839844 42.035156 27.136719 42.363281 26.484375 42.738281 C 25.445312 43.34375 24.558594 44.054688 23.847656 44.855469 C 23.65625 45.0625 23.480469 45.28125 23.3125 45.5 C 22.605469 46.441406 22.160156 47.476562 22.039062 48.554688 C 22.035156 48.585938 22.027344 48.621094 22.023438 48.65625 C 22.007812 48.789062 21.996094 48.921875 21.992188 49.054688 C 21.976562 49.25 21.964844 49.441406 21.972656 49.636719 C 21.976562 49.648438 21.976562 49.664062 21.980469 49.675781 C 21.992188 49.921875 22.015625 50.164062 22.066406 50.40625 C 22.265625 51.582031 22.8125 52.710938 23.671875 53.734375 L 23.792969 53.878906 C 24.039062 54.195312 24.304688 54.515625 24.585938 54.820312 L 38.339844 71.121094 L 53.011719 88.507812 C 55.414062 91.355469 59.960938 93.03125 64.761719 92.839844 C 66.375 92.785156 67.972656 92.527344 69.453125 92.023438 C 70.675781 91.660156 71.734375 91.132812 72.675781 90.519531 C 72.714844 90.492188 72.757812 90.464844 72.796875 90.4375 C 73.003906 90.296875 73.210938 90.15625 73.402344 90.003906 C 73.5625 89.882812 73.71875 89.757812 73.871094 89.628906 C 73.980469 89.535156 74.089844 89.441406 74.199219 89.34375 C 74.289062 89.261719 74.378906 89.179688 74.464844 89.09375 C 75.027344 88.5625 75.53125 88 75.972656 87.421875 C 76 87.378906 76.023438 87.332031 76.046875 87.289062 L 104.351562 53.734375 C 105.414062 52.472656 105.996094 51.046875 106.050781 49.59375 Z M 106.050781 49.59375 "
         id="path59" /></clipPath><linearGradient
       gradientUnits="userSpaceOnUse"
       x1="63.935"
       y1="33.574"
       x2="63.935"
       y2="97.82"
       id="gradient-0"><stop
         offset="0"
         style="stop-color:#b8b8b8;stop-opacity:1;"
         id="stop62" /><stop
         offset="1"
         style="stop-color:#2e4a5a;stop-opacity:1;"
         id="stop64" /></linearGradient><clipPath
       id="clip3"><path
         d="M 21.945312 40.488281 L 84.390625 40.488281 L 84.390625 65.800781 L 21.945312 65.800781 Z M 21.945312 40.488281 "
         id="path67" /></clipPath><clipPath
       id="clip4"><path
         d="M 106.050781 49.59375 C 106.128906 47.25 104.828125 44.988281 102.4375 43.3125 C 100.046875 41.636719 96.773438 40.695312 93.351562 40.695312 L 79.871094 40.695312 C 74.585938 40.695312 69.296875 40.699219 64.011719 40.695312 L 50.921875 40.695312 C 45.507812 40.695312 40.089844 40.699219 34.675781 40.695312 C 33.386719 40.675781 32.125 40.816406 30.921875 41.082031 C 30.910156 41.082031 30.902344 41.085938 30.886719 41.089844 C 30.554688 41.164062 30.222656 41.242188 29.894531 41.335938 C 29.613281 41.417969 29.332031 41.507812 29.054688 41.601562 C 29.027344 41.609375 29 41.625 28.964844 41.628906 C 28.835938 41.671875 28.710938 41.714844 28.582031 41.761719 C 27.839844 42.035156 27.136719 42.363281 26.484375 42.738281 C 25.445312 43.34375 24.558594 44.054688 23.847656 44.855469 C 23.65625 45.0625 23.480469 45.28125 23.3125 45.5 C 22.605469 46.441406 22.160156 47.476562 22.039062 48.554688 C 22.035156 48.585938 22.027344 48.621094 22.023438 48.65625 C 22.007812 48.789062 21.996094 48.921875 21.992188 49.054688 C 21.976562 49.25 21.964844 49.441406 21.972656 49.636719 C 21.976562 49.648438 21.976562 49.664062 21.980469 49.675781 C 21.992188 49.921875 22.015625 50.164062 22.066406 50.40625 C 22.265625 51.582031 22.8125 52.710938 23.671875 53.734375 L 23.792969 53.878906 C 24.039062 54.195312 24.304688 54.515625 24.585938 54.820312 L 38.339844 71.121094 L 53.011719 88.507812 C 55.414062 91.355469 59.960938 93.03125 64.761719 92.839844 C 66.375 92.785156 67.972656 92.527344 69.453125 92.023438 C 70.675781 91.660156 71.734375 91.132812 72.675781 90.519531 C 72.714844 90.492188 72.757812 90.464844 72.796875 90.4375 C 73.003906 90.296875 73.210938 90.15625 73.402344 90.003906 C 73.5625 89.882812 73.71875 89.757812 73.871094 89.628906 C 73.980469 89.535156 74.089844 89.441406 74.199219 89.34375 C 74.289062 89.261719 74.378906 89.179688 74.464844 89.09375 C 75.027344 88.5625 75.53125 88 75.972656 87.421875 C 76 87.378906 76.023438 87.332031 76.046875 87.289062 L 104.351562 53.734375 C 105.414062 52.472656 105.996094 51.046875 106.050781 49.59375 Z M 106.050781 49.59375 "
         id="path70" /></clipPath><clipPath
       id="clip5"><path
         d="M 21.945312 40.488281 L 106.050781 40.488281 L 106.050781 90 L 21.945312 90 Z M 21.945312 40.488281 "
         id="path73" /></clipPath><clipPath
       id="clip6"><path
         d="M 106.050781 49.59375 C 106.128906 47.25 104.828125 44.988281 102.4375 43.3125 C 100.046875 41.636719 96.773438 40.695312 93.351562 40.695312 L 79.871094 40.695312 C 74.585938 40.695312 69.296875 40.699219 64.011719 40.695312 L 50.921875 40.695312 C 45.507812 40.695312 40.089844 40.699219 34.675781 40.695312 C 33.386719 40.675781 32.125 40.816406 30.921875 41.082031 C 30.910156 41.082031 30.902344 41.085938 30.886719 41.089844 C 30.554688 41.164062 30.222656 41.242188 29.894531 41.335938 C 29.613281 41.417969 29.332031 41.507812 29.054688 41.601562 C 29.027344 41.609375 29 41.625 28.964844 41.628906 C 28.835938 41.671875 28.710938 41.714844 28.582031 41.761719 C 27.839844 42.035156 27.136719 42.363281 26.484375 42.738281 C 25.445312 43.34375 24.558594 44.054688 23.847656 44.855469 C 23.65625 45.0625 23.480469 45.28125 23.3125 45.5 C 22.605469 46.441406 22.160156 47.476562 22.039062 48.554688 C 22.035156 48.585938 22.027344 48.621094 22.023438 48.65625 C 22.007812 48.789062 21.996094 48.921875 21.992188 49.054688 C 21.976562 49.25 21.964844 49.441406 21.972656 49.636719 C 21.976562 49.648438 21.976562 49.664062 21.980469 49.675781 C 21.992188 49.921875 22.015625 50.164062 22.066406 50.40625 C 22.265625 51.582031 22.8125 52.710938 23.671875 53.734375 L 23.792969 53.878906 C 24.039062 54.195312 24.304688 54.515625 24.585938 54.820312 L 38.339844 71.121094 L 53.011719 88.507812 C 55.414062 91.355469 59.960938 93.03125 64.761719 92.839844 C 66.375 92.785156 67.972656 92.527344 69.453125 92.023438 C 70.675781 91.660156 71.734375 91.132812 72.675781 90.519531 C 72.714844 90.492188 72.757812 90.464844 72.796875 90.4375 C 73.003906 90.296875 73.210938 90.15625 73.402344 90.003906 C 73.5625 89.882812 73.71875 89.757812 73.871094 89.628906 C 73.980469 89.535156 74.089844 89.441406 74.199219 89.34375 C 74.289062 89.261719 74.378906 89.179688 74.464844 89.09375 C 75.027344 88.5625 75.53125 88 75.972656 87.421875 C 76 87.378906 76.023438 87.332031 76.046875 87.289062 L 104.351562 53.734375 C 105.414062 52.472656 105.996094 51.046875 106.050781 49.59375 Z M 106.050781 49.59375 "
         id="path76" /></clipPath><clipPath
       id="clip9"><path
         d="M 21.945312 40.488281 L 87.660156 40.488281 L 87.660156 68.511719 L 21.945312 68.511719 Z M 21.945312 40.488281 "
         id="path79" /></clipPath><clipPath
       id="clip10"><path
         d="M 106.050781 49.59375 C 106.128906 47.25 104.828125 44.988281 102.4375 43.3125 C 100.046875 41.636719 96.773438 40.695312 93.351562 40.695312 L 79.871094 40.695312 C 74.585938 40.695312 69.296875 40.699219 64.011719 40.695312 L 50.921875 40.695312 C 45.507812 40.695312 40.089844 40.699219 34.675781 40.695312 C 33.386719 40.675781 32.125 40.816406 30.921875 41.082031 C 30.910156 41.082031 30.902344 41.085938 30.886719 41.089844 C 30.554688 41.164062 30.222656 41.242188 29.894531 41.335938 C 29.613281 41.417969 29.332031 41.507812 29.054688 41.601562 C 29.027344 41.609375 29 41.625 28.964844 41.628906 C 28.835938 41.671875 28.710938 41.714844 28.582031 41.761719 C 27.839844 42.035156 27.136719 42.363281 26.484375 42.738281 C 25.445312 43.34375 24.558594 44.054688 23.847656 44.855469 C 23.65625 45.0625 23.480469 45.28125 23.3125 45.5 C 22.605469 46.441406 22.160156 47.476562 22.039062 48.554688 C 22.035156 48.585938 22.027344 48.621094 22.023438 48.65625 C 22.007812 48.789062 21.996094 48.921875 21.992188 49.054688 C 21.976562 49.25 21.964844 49.441406 21.972656 49.636719 C 21.976562 49.648438 21.976562 49.664062 21.980469 49.675781 C 21.992188 49.921875 22.015625 50.164062 22.066406 50.40625 C 22.265625 51.582031 22.8125 52.710938 23.671875 53.734375 L 23.792969 53.878906 C 24.039062 54.195312 24.304688 54.515625 24.585938 54.820312 L 38.339844 71.121094 L 53.011719 88.507812 C 55.414062 91.355469 59.960938 93.03125 64.761719 92.839844 C 66.375 92.785156 67.972656 92.527344 69.453125 92.023438 C 70.675781 91.660156 71.734375 91.132812 72.675781 90.519531 C 72.714844 90.492188 72.757812 90.464844 72.796875 90.4375 C 73.003906 90.296875 73.210938 90.15625 73.402344 90.003906 C 73.5625 89.882812 73.71875 89.757812 73.871094 89.628906 C 73.980469 89.535156 74.089844 89.441406 74.199219 89.34375 C 74.289062 89.261719 74.378906 89.179688 74.464844 89.09375 C 75.027344 88.5625 75.53125 88 75.972656 87.421875 C 76 87.378906 76.023438 87.332031 76.046875 87.289062 L 104.351562 53.734375 C 105.414062 52.472656 105.996094 51.046875 106.050781 49.59375 Z M 106.050781 49.59375 "
         id="path82" /></clipPath><clipPath
       id="clip11"><path
         d="M 22.28125 57 L 85 57 L 85 92.855469 L 22.28125 92.855469 Z M 22.28125 57 "
         id="path85" /></clipPath><clipPath
       id="clip12"><path
         d="M 106.050781 49.59375 C 106.128906 47.25 104.828125 44.988281 102.4375 43.3125 C 100.046875 41.636719 96.773438 40.695312 93.351562 40.695312 L 79.871094 40.695312 C 74.585938 40.695312 69.296875 40.699219 64.011719 40.695312 L 50.921875 40.695312 C 45.507812 40.695312 40.089844 40.699219 34.675781 40.695312 C 33.386719 40.675781 32.125 40.816406 30.921875 41.082031 C 30.910156 41.082031 30.902344 41.085938 30.886719 41.089844 C 30.554688 41.164062 30.222656 41.242188 29.894531 41.335938 C 29.613281 41.417969 29.332031 41.507812 29.054688 41.601562 C 29.027344 41.609375 29 41.625 28.964844 41.628906 C 28.835938 41.671875 28.710938 41.714844 28.582031 41.761719 C 27.839844 42.035156 27.136719 42.363281 26.484375 42.738281 C 25.445312 43.34375 24.558594 44.054688 23.847656 44.855469 C 23.65625 45.0625 23.480469 45.28125 23.3125 45.5 C 22.605469 46.441406 22.160156 47.476562 22.039062 48.554688 C 22.035156 48.585938 22.027344 48.621094 22.023438 48.65625 C 22.007812 48.789062 21.996094 48.921875 21.992188 49.054688 C 21.976562 49.25 21.964844 49.441406 21.972656 49.636719 C 21.976562 49.648438 21.976562 49.664062 21.980469 49.675781 C 21.992188 49.921875 22.015625 50.164062 22.066406 50.40625 C 22.265625 51.582031 22.8125 52.710938 23.671875 53.734375 L 23.792969 53.878906 C 24.039062 54.195312 24.304688 54.515625 24.585938 54.820312 L 38.339844 71.121094 L 53.011719 88.507812 C 55.414062 91.355469 59.960938 93.03125 64.761719 92.839844 C 66.375 92.785156 67.972656 92.527344 69.453125 92.023438 C 70.675781 91.660156 71.734375 91.132812 72.675781 90.519531 C 72.714844 90.492188 72.757812 90.464844 72.796875 90.4375 C 73.003906 90.296875 73.210938 90.15625 73.402344 90.003906 C 73.5625 89.882812 73.71875 89.757812 73.871094 89.628906 C 73.980469 89.535156 74.089844 89.441406 74.199219 89.34375 C 74.289062 89.261719 74.378906 89.179688 74.464844 89.09375 C 75.027344 88.5625 75.53125 88 75.972656 87.421875 C 76 87.378906 76.023438 87.332031 76.046875 87.289062 L 104.351562 53.734375 C 105.414062 52.472656 105.996094 51.046875 106.050781 49.59375 Z M 106.050781 49.59375 "
         id="path88" /></clipPath><clipPath
       id="clip13"><path
         d="M 39.445312 3.066406 L 84.390625 3.066406 L 84.390625 50 L 39.445312 50 Z M 39.445312 3.066406 "
         id="path91" /></clipPath><clipPath
       id="clip14"><path
         d="M 78.609375 49.621094 L 49.035156 49.621094 C 43.800781 49.621094 39.550781 44.921875 39.550781 39.132812 L 39.550781 13.550781 C 39.550781 7.765625 43.800781 3.066406 49.035156 3.066406 L 78.609375 3.066406 C 83.839844 3.066406 88.089844 7.765625 88.089844 13.550781 L 88.089844 39.132812 C 88.089844 44.921875 83.839844 49.621094 78.609375 49.621094 Z M 78.609375 49.621094 "
         id="path94" /></clipPath><clipPath
       id="clip15"><path
         d="M 39.445312 3.066406 L 88.476562 3.066406 L 88.476562 50 L 39.445312 50 Z M 39.445312 3.066406 "
         id="path97" /></clipPath><clipPath
       id="clip16"><path
         d="M 78.609375 49.621094 L 49.035156 49.621094 C 43.800781 49.621094 39.550781 44.921875 39.550781 39.132812 L 39.550781 13.550781 C 39.550781 7.765625 43.800781 3.066406 49.035156 3.066406 L 78.609375 3.066406 C 83.839844 3.066406 88.089844 7.765625 88.089844 13.550781 L 88.089844 39.132812 C 88.089844 44.921875 83.839844 49.621094 78.609375 49.621094 Z M 78.609375 49.621094 "
         id="path100" /></clipPath><clipPath
       id="clip17"><path
         d="M 39.445312 33.257812 L 88.476562 33.257812 L 88.476562 50 L 39.445312 50 Z M 39.445312 33.257812 "
         id="path103" /></clipPath><clipPath
       id="clip18"><path
         d="M 78.609375 49.621094 L 49.035156 49.621094 C 43.800781 49.621094 39.550781 44.921875 39.550781 39.132812 L 39.550781 13.550781 C 39.550781 7.765625 43.800781 3.066406 49.035156 3.066406 L 78.609375 3.066406 C 83.839844 3.066406 88.089844 7.765625 88.089844 13.550781 L 88.089844 39.132812 C 88.089844 44.921875 83.839844 49.621094 78.609375 49.621094 Z M 78.609375 49.621094 "
         id="path106" /></clipPath><linearGradient
       id="linear7"
       gradientUnits="userSpaceOnUse"
       x1="0.1875"
       y1="0.863331"
       x2="0.422119"
       y2="0.276785"
       gradientTransform="matrix(0.227081,64.196051,-87.19204,0.194423,107.473165,33.52556)"><stop
         offset="0"
         style="stop-color:rgb(17.647059%,75.294119%,68.627453%);stop-opacity:1;"
         id="stop109" /><stop
         offset="1"
         style="stop-color:rgb(20.784314%,51.764709%,89.411765%);stop-opacity:1;"
         id="stop111" /></linearGradient><clipPath
       id="clip19"><path
         d="M 39.445312 3.066406 L 87.660156 3.066406 L 87.660156 50 L 39.445312 50 Z M 39.445312 3.066406 "
         id="path114" /></clipPath><clipPath
       id="clip20"><path
         d="M 78.609375 49.621094 L 49.035156 49.621094 C 43.800781 49.621094 39.550781 44.921875 39.550781 39.132812 L 39.550781 13.550781 C 39.550781 7.765625 43.800781 3.066406 49.035156 3.066406 L 78.609375 3.066406 C 83.839844 3.066406 88.089844 7.765625 88.089844 13.550781 L 88.089844 39.132812 C 88.089844 44.921875 83.839844 49.621094 78.609375 49.621094 Z M 78.609375 49.621094 "
         id="path117" /></clipPath><radialGradient
       id="radial0-0"
       gradientUnits="userSpaceOnUse"
       cx="63.999996"
       cy="89.047478"
       fx="63.999996"
       fy="89.047478"
       r="52.956203"
       gradientTransform="matrix(1.000001,0,0,0.796791,-7.73185e-5,14.129123)"><stop
         offset="0.453515"
         style="stop-color:rgb(69.803923%,69.803923%,69.803923%);stop-opacity:1;"
         id="stop4121" /><stop
         offset="1"
         style="stop-color:rgb(47.450981%,47.450981%,47.450981%);stop-opacity:1;"
         id="stop4123" /></radialGradient><radialGradient
       id="radial1-5"
       gradientUnits="userSpaceOnUse"
       cx="64"
       cy="85.972267"
       fx="64"
       fy="85.972267"
       r="52.956207"
       gradientTransform="matrix(1,0,0,0.758736,-2e-6,17.835844)"><stop
         offset="0"
         style="stop-color:rgb(75.686276%,75.686276%,75.686276%);stop-opacity:1;"
         id="stop4126" /><stop
         offset="1"
         style="stop-color:rgb(65.490198%,65.490198%,65.490198%);stop-opacity:1;"
         id="stop4128" /></radialGradient><linearGradient
       id="linear0-0"
       gradientUnits="userSpaceOnUse"
       x1="95.556961"
       y1="288.832336"
       x2="30.610176"
       y2="288.832336"
       gradientTransform="matrix(-0.77964187,0,0,-2.4352802,506.07344,1511.2303)"><stop
         offset="0"
         style="stop-color:rgb(16.862746%,50.196081%,50.196081%);stop-opacity:1;"
         id="stop4131" /><stop
         offset="0.0335631"
         style="stop-color:rgb(76.078433%,92.941177%,92.941177%);stop-opacity:1;"
         id="stop4133" /></linearGradient><filter
       id="alpha-3"
       filterUnits="objectBoundingBox"
       x="0"
       y="0"
       width="1"
       height="1"><feColorMatrix
         type="matrix"
         in="SourceGraphic"
         values="0 0 0 0 1 0 0 0 0 1 0 0 0 0 1 0 0 0 1 0"
         id="feColorMatrix4146" /></filter><mask
       id="mask0-0"><g
         filter="url(#alpha)"
         id="g4151"
         style="filter:url(#alpha-3)"><rect
           x="0"
           y="0"
           width="128"
           height="128"
           style="fill:rgb(0%,0%,0%);fill-opacity:0.929078;stroke:none;"
           id="rect4149" /></g></mask><clipPath
       id="clip2-7"><path
         d="M 21.945312 37 L 106.050781 37 L 106.050781 89 L 21.945312 89 Z M 21.945312 37 "
         id="path4154" /></clipPath><linearGradient
       id="linear1-2"
       gradientUnits="userSpaceOnUse"
       x1="-0.040162"
       y1="0.994357"
       x2="-0.040162"
       y2="0.005406"
       gradientTransform="matrix(0,51.477591,-84.082726,0,106.030785,37.350773)"><stop
         offset="0"
         style="stop-color:rgb(16.862746%,56.078434%,53.725493%);stop-opacity:1;"
         id="stop4157" /><stop
         offset="0.0186402"
         style="stop-color:rgb(59.215689%,85.882354%,72.941178%);stop-opacity:0.74902;"
         id="stop4159" /><stop
         offset="0.0547227"
         style="stop-color:rgb(18.039216%,60.392159%,55.29412%);stop-opacity:1;"
         id="stop4161" /><stop
         offset="0.206769"
         style="stop-color:rgb(18.039216%,60.392159%,55.29412%);stop-opacity:1;"
         id="stop4163" /><stop
         offset="0.908214"
         style="stop-color:rgb(9.019608%,35.686275%,67.843139%);stop-opacity:1;"
         id="stop4165" /><stop
         offset="0.97459"
         style="stop-color:rgb(39.215687%,62.7451%,90.980393%);stop-opacity:1;"
         id="stop4167" /><stop
         offset="1"
         style="stop-color:rgb(7.058824%,28.627452%,54.901963%);stop-opacity:1;"
         id="stop4169" /></linearGradient><clipPath
       id="clip3-3"><path
         d="M 21.945312 40.488281 L 84.390625 40.488281 L 84.390625 65.800781 L 21.945312 65.800781 Z M 21.945312 40.488281 "
         id="path4172" /></clipPath><clipPath
       id="clip4-2"><path
         d="M 106.050781 49.59375 C 106.128906 47.25 104.828125 44.988281 102.4375 43.3125 C 100.046875 41.636719 96.773438 40.695312 93.351562 40.695312 L 79.871094 40.695312 C 74.585938 40.695312 69.296875 40.699219 64.011719 40.695312 L 50.921875 40.695312 C 45.507812 40.695312 40.089844 40.699219 34.675781 40.695312 C 33.386719 40.675781 32.125 40.816406 30.921875 41.082031 C 30.910156 41.082031 30.902344 41.085938 30.886719 41.089844 C 30.554688 41.164062 30.222656 41.242188 29.894531 41.335938 C 29.613281 41.417969 29.332031 41.507812 29.054688 41.601562 C 29.027344 41.609375 29 41.625 28.964844 41.628906 C 28.835938 41.671875 28.710938 41.714844 28.582031 41.761719 C 27.839844 42.035156 27.136719 42.363281 26.484375 42.738281 C 25.445312 43.34375 24.558594 44.054688 23.847656 44.855469 C 23.65625 45.0625 23.480469 45.28125 23.3125 45.5 C 22.605469 46.441406 22.160156 47.476562 22.039062 48.554688 C 22.035156 48.585938 22.027344 48.621094 22.023438 48.65625 C 22.007812 48.789062 21.996094 48.921875 21.992188 49.054688 C 21.976562 49.25 21.964844 49.441406 21.972656 49.636719 C 21.976562 49.648438 21.976562 49.664062 21.980469 49.675781 C 21.992188 49.921875 22.015625 50.164062 22.066406 50.40625 C 22.265625 51.582031 22.8125 52.710938 23.671875 53.734375 L 23.792969 53.878906 C 24.039062 54.195312 24.304688 54.515625 24.585938 54.820312 L 38.339844 71.121094 L 53.011719 88.507812 C 55.414062 91.355469 59.960938 93.03125 64.761719 92.839844 C 66.375 92.785156 67.972656 92.527344 69.453125 92.023438 C 70.675781 91.660156 71.734375 91.132812 72.675781 90.519531 C 72.714844 90.492188 72.757812 90.464844 72.796875 90.4375 C 73.003906 90.296875 73.210938 90.15625 73.402344 90.003906 C 73.5625 89.882812 73.71875 89.757812 73.871094 89.628906 C 73.980469 89.535156 74.089844 89.441406 74.199219 89.34375 C 74.289062 89.261719 74.378906 89.179688 74.464844 89.09375 C 75.027344 88.5625 75.53125 88 75.972656 87.421875 C 76 87.378906 76.023438 87.332031 76.046875 87.289062 L 104.351562 53.734375 C 105.414062 52.472656 105.996094 51.046875 106.050781 49.59375 Z M 106.050781 49.59375 "
         id="path4175" /></clipPath><clipPath
       id="clip5-4"><path
         d="M 21.945312 40.488281 L 106.050781 40.488281 L 106.050781 90 L 21.945312 90 Z M 21.945312 40.488281 "
         id="path4178" /></clipPath><clipPath
       id="clip6-2"><path
         d="M 106.050781 49.59375 C 106.128906 47.25 104.828125 44.988281 102.4375 43.3125 C 100.046875 41.636719 96.773438 40.695312 93.351562 40.695312 L 79.871094 40.695312 C 74.585938 40.695312 69.296875 40.699219 64.011719 40.695312 L 50.921875 40.695312 C 45.507812 40.695312 40.089844 40.699219 34.675781 40.695312 C 33.386719 40.675781 32.125 40.816406 30.921875 41.082031 C 30.910156 41.082031 30.902344 41.085938 30.886719 41.089844 C 30.554688 41.164062 30.222656 41.242188 29.894531 41.335938 C 29.613281 41.417969 29.332031 41.507812 29.054688 41.601562 C 29.027344 41.609375 29 41.625 28.964844 41.628906 C 28.835938 41.671875 28.710938 41.714844 28.582031 41.761719 C 27.839844 42.035156 27.136719 42.363281 26.484375 42.738281 C 25.445312 43.34375 24.558594 44.054688 23.847656 44.855469 C 23.65625 45.0625 23.480469 45.28125 23.3125 45.5 C 22.605469 46.441406 22.160156 47.476562 22.039062 48.554688 C 22.035156 48.585938 22.027344 48.621094 22.023438 48.65625 C 22.007812 48.789062 21.996094 48.921875 21.992188 49.054688 C 21.976562 49.25 21.964844 49.441406 21.972656 49.636719 C 21.976562 49.648438 21.976562 49.664062 21.980469 49.675781 C 21.992188 49.921875 22.015625 50.164062 22.066406 50.40625 C 22.265625 51.582031 22.8125 52.710938 23.671875 53.734375 L 23.792969 53.878906 C 24.039062 54.195312 24.304688 54.515625 24.585938 54.820312 L 38.339844 71.121094 L 53.011719 88.507812 C 55.414062 91.355469 59.960938 93.03125 64.761719 92.839844 C 66.375 92.785156 67.972656 92.527344 69.453125 92.023438 C 70.675781 91.660156 71.734375 91.132812 72.675781 90.519531 C 72.714844 90.492188 72.757812 90.464844 72.796875 90.4375 C 73.003906 90.296875 73.210938 90.15625 73.402344 90.003906 C 73.5625 89.882812 73.71875 89.757812 73.871094 89.628906 C 73.980469 89.535156 74.089844 89.441406 74.199219 89.34375 C 74.289062 89.261719 74.378906 89.179688 74.464844 89.09375 C 75.027344 88.5625 75.53125 88 75.972656 87.421875 C 76 87.378906 76.023438 87.332031 76.046875 87.289062 L 104.351562 53.734375 C 105.414062 52.472656 105.996094 51.046875 106.050781 49.59375 Z M 106.050781 49.59375 "
         id="path4181" /></clipPath><linearGradient
       id="linear2"
       gradientUnits="userSpaceOnUse"
       x1="0.136364"
       y1="0.636831"
       x2="0.404698"
       y2="0.153269"
       gradientTransform="matrix(0.312866,88.270154,-113.688086,0.25303,130.725329,1.375911)"><stop
         offset="0"
         style="stop-color:rgb(33.725491%,77.254903%,76.862746%);stop-opacity:1;"
         id="stop4184" /><stop
         offset="1"
         style="stop-color:rgb(11.372549%,39.607844%,78.823531%);stop-opacity:1;"
         id="stop4186" /></linearGradient><clipPath
       id="clip7-8"><path
         d="M 21.945312 40.488281 L 106.050781 40.488281 L 106.050781 92.855469 L 21.945312 92.855469 Z M 21.945312 40.488281 "
         id="path4189" /></clipPath><clipPath
       id="clip8-8"><path
         d="M 106.050781 49.59375 C 106.128906 47.25 104.828125 44.988281 102.4375 43.3125 C 100.046875 41.636719 96.773438 40.695312 93.351562 40.695312 L 79.871094 40.695312 C 74.585938 40.695312 69.296875 40.699219 64.011719 40.695312 L 50.921875 40.695312 C 45.507812 40.695312 40.089844 40.699219 34.675781 40.695312 C 33.386719 40.675781 32.125 40.816406 30.921875 41.082031 C 30.910156 41.082031 30.902344 41.085938 30.886719 41.089844 C 30.554688 41.164062 30.222656 41.242188 29.894531 41.335938 C 29.613281 41.417969 29.332031 41.507812 29.054688 41.601562 C 29.027344 41.609375 29 41.625 28.964844 41.628906 C 28.835938 41.671875 28.710938 41.714844 28.582031 41.761719 C 27.839844 42.035156 27.136719 42.363281 26.484375 42.738281 C 25.445312 43.34375 24.558594 44.054688 23.847656 44.855469 C 23.65625 45.0625 23.480469 45.28125 23.3125 45.5 C 22.605469 46.441406 22.160156 47.476562 22.039062 48.554688 C 22.035156 48.585938 22.027344 48.621094 22.023438 48.65625 C 22.007812 48.789062 21.996094 48.921875 21.992188 49.054688 C 21.976562 49.25 21.964844 49.441406 21.972656 49.636719 C 21.976562 49.648438 21.976562 49.664062 21.980469 49.675781 C 21.992188 49.921875 22.015625 50.164062 22.066406 50.40625 C 22.265625 51.582031 22.8125 52.710938 23.671875 53.734375 L 23.792969 53.878906 C 24.039062 54.195312 24.304688 54.515625 24.585938 54.820312 L 38.339844 71.121094 L 53.011719 88.507812 C 55.414062 91.355469 59.960938 93.03125 64.761719 92.839844 C 66.375 92.785156 67.972656 92.527344 69.453125 92.023438 C 70.675781 91.660156 71.734375 91.132812 72.675781 90.519531 C 72.714844 90.492188 72.757812 90.464844 72.796875 90.4375 C 73.003906 90.296875 73.210938 90.15625 73.402344 90.003906 C 73.5625 89.882812 73.71875 89.757812 73.871094 89.628906 C 73.980469 89.535156 74.089844 89.441406 74.199219 89.34375 C 74.289062 89.261719 74.378906 89.179688 74.464844 89.09375 C 75.027344 88.5625 75.53125 88 75.972656 87.421875 C 76 87.378906 76.023438 87.332031 76.046875 87.289062 L 104.351562 53.734375 C 105.414062 52.472656 105.996094 51.046875 106.050781 49.59375 Z M 106.050781 49.59375 "
         id="path4192" /></clipPath><clipPath
       id="clip9-0"><path
         d="M 21.945312 40.488281 L 87.660156 40.488281 L 87.660156 68.511719 L 21.945312 68.511719 Z M 21.945312 40.488281 "
         id="path4200" /></clipPath><clipPath
       id="clip10-2"><path
         d="M 106.050781 49.59375 C 106.128906 47.25 104.828125 44.988281 102.4375 43.3125 C 100.046875 41.636719 96.773438 40.695312 93.351562 40.695312 L 79.871094 40.695312 C 74.585938 40.695312 69.296875 40.699219 64.011719 40.695312 L 50.921875 40.695312 C 45.507812 40.695312 40.089844 40.699219 34.675781 40.695312 C 33.386719 40.675781 32.125 40.816406 30.921875 41.082031 C 30.910156 41.082031 30.902344 41.085938 30.886719 41.089844 C 30.554688 41.164062 30.222656 41.242188 29.894531 41.335938 C 29.613281 41.417969 29.332031 41.507812 29.054688 41.601562 C 29.027344 41.609375 29 41.625 28.964844 41.628906 C 28.835938 41.671875 28.710938 41.714844 28.582031 41.761719 C 27.839844 42.035156 27.136719 42.363281 26.484375 42.738281 C 25.445312 43.34375 24.558594 44.054688 23.847656 44.855469 C 23.65625 45.0625 23.480469 45.28125 23.3125 45.5 C 22.605469 46.441406 22.160156 47.476562 22.039062 48.554688 C 22.035156 48.585938 22.027344 48.621094 22.023438 48.65625 C 22.007812 48.789062 21.996094 48.921875 21.992188 49.054688 C 21.976562 49.25 21.964844 49.441406 21.972656 49.636719 C 21.976562 49.648438 21.976562 49.664062 21.980469 49.675781 C 21.992188 49.921875 22.015625 50.164062 22.066406 50.40625 C 22.265625 51.582031 22.8125 52.710938 23.671875 53.734375 L 23.792969 53.878906 C 24.039062 54.195312 24.304688 54.515625 24.585938 54.820312 L 38.339844 71.121094 L 53.011719 88.507812 C 55.414062 91.355469 59.960938 93.03125 64.761719 92.839844 C 66.375 92.785156 67.972656 92.527344 69.453125 92.023438 C 70.675781 91.660156 71.734375 91.132812 72.675781 90.519531 C 72.714844 90.492188 72.757812 90.464844 72.796875 90.4375 C 73.003906 90.296875 73.210938 90.15625 73.402344 90.003906 C 73.5625 89.882812 73.71875 89.757812 73.871094 89.628906 C 73.980469 89.535156 74.089844 89.441406 74.199219 89.34375 C 74.289062 89.261719 74.378906 89.179688 74.464844 89.09375 C 75.027344 88.5625 75.53125 88 75.972656 87.421875 C 76 87.378906 76.023438 87.332031 76.046875 87.289062 L 104.351562 53.734375 C 105.414062 52.472656 105.996094 51.046875 106.050781 49.59375 Z M 106.050781 49.59375 "
         id="path4203" /></clipPath><linearGradient
       id="linear4"
       gradientUnits="userSpaceOnUse"
       x1="0.562523"
       y1="0.597858"
       x2="-0.308168"
       y2="0.473474"
       gradientTransform="matrix(0,66.123585,-84.41968,0,87.538666,2.317002)"><stop
         offset="0"
         style="stop-color:rgb(100%,100%,100%);stop-opacity:0.4;"
         id="stop4206" /><stop
         offset="1"
         style="stop-color:rgb(100%,100%,100%);stop-opacity:0;"
         id="stop4208" /></linearGradient><clipPath
       id="clip11-5"><path
         d="M 22.28125 57 L 85 57 L 85 92.855469 L 22.28125 92.855469 Z M 22.28125 57 "
         id="path4211" /></clipPath><clipPath
       id="clip12-3"><path
         d="M 106.050781 49.59375 C 106.128906 47.25 104.828125 44.988281 102.4375 43.3125 C 100.046875 41.636719 96.773438 40.695312 93.351562 40.695312 L 79.871094 40.695312 C 74.585938 40.695312 69.296875 40.699219 64.011719 40.695312 L 50.921875 40.695312 C 45.507812 40.695312 40.089844 40.699219 34.675781 40.695312 C 33.386719 40.675781 32.125 40.816406 30.921875 41.082031 C 30.910156 41.082031 30.902344 41.085938 30.886719 41.089844 C 30.554688 41.164062 30.222656 41.242188 29.894531 41.335938 C 29.613281 41.417969 29.332031 41.507812 29.054688 41.601562 C 29.027344 41.609375 29 41.625 28.964844 41.628906 C 28.835938 41.671875 28.710938 41.714844 28.582031 41.761719 C 27.839844 42.035156 27.136719 42.363281 26.484375 42.738281 C 25.445312 43.34375 24.558594 44.054688 23.847656 44.855469 C 23.65625 45.0625 23.480469 45.28125 23.3125 45.5 C 22.605469 46.441406 22.160156 47.476562 22.039062 48.554688 C 22.035156 48.585938 22.027344 48.621094 22.023438 48.65625 C 22.007812 48.789062 21.996094 48.921875 21.992188 49.054688 C 21.976562 49.25 21.964844 49.441406 21.972656 49.636719 C 21.976562 49.648438 21.976562 49.664062 21.980469 49.675781 C 21.992188 49.921875 22.015625 50.164062 22.066406 50.40625 C 22.265625 51.582031 22.8125 52.710938 23.671875 53.734375 L 23.792969 53.878906 C 24.039062 54.195312 24.304688 54.515625 24.585938 54.820312 L 38.339844 71.121094 L 53.011719 88.507812 C 55.414062 91.355469 59.960938 93.03125 64.761719 92.839844 C 66.375 92.785156 67.972656 92.527344 69.453125 92.023438 C 70.675781 91.660156 71.734375 91.132812 72.675781 90.519531 C 72.714844 90.492188 72.757812 90.464844 72.796875 90.4375 C 73.003906 90.296875 73.210938 90.15625 73.402344 90.003906 C 73.5625 89.882812 73.71875 89.757812 73.871094 89.628906 C 73.980469 89.535156 74.089844 89.441406 74.199219 89.34375 C 74.289062 89.261719 74.378906 89.179688 74.464844 89.09375 C 75.027344 88.5625 75.53125 88 75.972656 87.421875 C 76 87.378906 76.023438 87.332031 76.046875 87.289062 L 104.351562 53.734375 C 105.414062 52.472656 105.996094 51.046875 106.050781 49.59375 Z M 106.050781 49.59375 "
         id="path4214" /></clipPath><linearGradient
       id="linear5"
       gradientUnits="userSpaceOnUse"
       x1="0.99036"
       y1="0.399412"
       x2="0.107737"
       y2="0.508042"
       gradientTransform="matrix(0.143818,40.500564,-61.426018,0.136748,84.311834,57.263839)"><stop
         offset="0"
         style="stop-color:rgb(17.647059%,75.294119%,68.627453%);stop-opacity:1;"
         id="stop4217" /><stop
         offset="1"
         style="stop-color:rgb(36.862746%,85.09804%,79.607844%);stop-opacity:1;"
         id="stop4219" /></linearGradient><clipPath
       id="clip13-9"><path
         d="M 39.445312 3.066406 L 84.390625 3.066406 L 84.390625 50 L 39.445312 50 Z M 39.445312 3.066406 "
         id="path4222" /></clipPath><clipPath
       id="clip14-3"><path
         d="M 78.609375 49.621094 L 49.035156 49.621094 C 43.800781 49.621094 39.550781 44.921875 39.550781 39.132812 L 39.550781 13.550781 C 39.550781 7.765625 43.800781 3.066406 49.035156 3.066406 L 78.609375 3.066406 C 83.839844 3.066406 88.089844 7.765625 88.089844 13.550781 L 88.089844 39.132812 C 88.089844 44.921875 83.839844 49.621094 78.609375 49.621094 Z M 78.609375 49.621094 "
         id="path4225" /></clipPath><clipPath
       id="clip15-8"><path
         d="M 39.445312 3.066406 L 88.476562 3.066406 L 88.476562 50 L 39.445312 50 Z M 39.445312 3.066406 "
         id="path4228" /></clipPath><clipPath
       id="clip16-6"><path
         d="M 78.609375 49.621094 L 49.035156 49.621094 C 43.800781 49.621094 39.550781 44.921875 39.550781 39.132812 L 39.550781 13.550781 C 39.550781 7.765625 43.800781 3.066406 49.035156 3.066406 L 78.609375 3.066406 C 83.839844 3.066406 88.089844 7.765625 88.089844 13.550781 L 88.089844 39.132812 C 88.089844 44.921875 83.839844 49.621094 78.609375 49.621094 Z M 78.609375 49.621094 "
         id="path4231" /></clipPath><clipPath
       id="clip17-1"><path
         d="M 39.445312 33.257812 L 88.476562 33.257812 L 88.476562 50 L 39.445312 50 Z M 39.445312 33.257812 "
         id="path4239" /></clipPath><clipPath
       id="clip18-4"><path
         d="M 78.609375 49.621094 L 49.035156 49.621094 C 43.800781 49.621094 39.550781 44.921875 39.550781 39.132812 L 39.550781 13.550781 C 39.550781 7.765625 43.800781 3.066406 49.035156 3.066406 L 78.609375 3.066406 C 83.839844 3.066406 88.089844 7.765625 88.089844 13.550781 L 88.089844 39.132812 C 88.089844 44.921875 83.839844 49.621094 78.609375 49.621094 Z M 78.609375 49.621094 "
         id="path4242" /></clipPath><clipPath
       id="clip19-8"><path
         d="M 39.445312 3.066406 L 87.660156 3.066406 L 87.660156 50 L 39.445312 50 Z M 39.445312 3.066406 "
         id="path4250" /></clipPath><clipPath
       id="clip20-6"><path
         d="M 78.609375 49.621094 L 49.035156 49.621094 C 43.800781 49.621094 39.550781 44.921875 39.550781 39.132812 L 39.550781 13.550781 C 39.550781 7.765625 43.800781 3.066406 49.035156 3.066406 L 78.609375 3.066406 C 83.839844 3.066406 88.089844 7.765625 88.089844 13.550781 L 88.089844 39.132812 C 88.089844 44.921875 83.839844 49.621094 78.609375 49.621094 Z M 78.609375 49.621094 "
         id="path4253" /></clipPath><clipPath
       id="clip1-9"><rect
         x="0"
         y="0"
         width="128"
         height="128"
         id="rect4261" /></clipPath><g
       id="surface486"
       clip-path="url(#clip1-9)"><g
         clip-path="url(#clip2-7)"
         clip-rule="nonzero"
         id="g4266"><path
           style="stroke:none;fill-rule:evenodd;fill:url(#linear1-2)"
           d="M 106.027344 48.113281 C 106.109375 45.804688 106.292969 42.800781 103.429688 40.492188 C 101.035156 38.839844 99.3125 37.355469 93.328125 37.355469 L 79.847656 37.355469 C 74.5625 37.355469 69.273438 37.359375 63.988281 37.355469 L 50.898438 37.355469 C 45.480469 37.355469 40.066406 37.359375 34.652344 37.355469 C 33.363281 37.335938 32.101562 37.476562 30.902344 37.734375 C 30.886719 37.738281 30.878906 37.738281 30.867188 37.742188 C 30.53125 37.816406 30.199219 37.894531 29.871094 37.988281 C 29.589844 38.066406 29.308594 38.15625 29.035156 38.25 C 29 38.257812 28.976562 38.269531 28.945312 38.277344 C 28.8125 38.316406 28.6875 38.359375 28.554688 38.402344 C 27.8125 38.679688 27.113281 39 26.464844 39.375 C 25.421875 39.96875 24.53125 40.667969 23.824219 41.457031 C 23.636719 41.664062 23.453125 41.878906 23.289062 42.097656 C 22.582031 43.027344 22.136719 44.046875 22.015625 45.113281 C 22.011719 45.144531 22.003906 45.175781 21.996094 45.210938 C 21.984375 45.339844 21.976562 45.476562 21.96875 45.605469 C 21.953125 45.796875 21.945312 45.988281 21.949219 46.179688 C 21.953125 46.191406 21.953125 46.207031 21.957031 46.21875 C 21.96875 46.460938 21.929688 48.609375 21.980469 48.847656 C 22.179688 50.003906 22.785156 49.210938 23.648438 50.222656 L 23.765625 50.367188 C 24.019531 50.679688 24.285156 50.996094 24.5625 51.292969 L 24.5625 51.296875 L 38.316406 67.382812 L 52.984375 84.542969 C 55.390625 87.351562 59.9375 89.003906 64.738281 88.816406 C 66.351562 88.761719 67.949219 88.503906 69.429688 88.011719 C 70.652344 87.648438 71.710938 87.132812 72.652344 86.523438 C 72.691406 86.5 72.734375 86.46875 72.773438 86.445312 C 72.980469 86.304688 73.183594 86.167969 73.382812 86.019531 C 73.542969 85.894531 73.699219 85.769531 73.84375 85.648438 C 73.957031 85.554688 74.066406 85.460938 74.171875 85.363281 C 74.265625 85.285156 74.355469 85.203125 74.441406 85.117188 C 75.003906 84.589844 75.503906 84.039062 75.953125 83.46875 C 75.976562 83.421875 76 83.378906 76.023438 83.335938 L 86.476562 49.957031 C 83.992188 45.996094 106.113281 59.550781 106.027344 48.113281 Z M 106.027344 48.113281 "
           id="path4264" /></g><g
         clip-path="url(#clip3-3)"
         clip-rule="nonzero"
         id="g4272"><g
           clip-path="url(#clip4-2)"
           clip-rule="nonzero"
           id="g4270"><path
             style=" stroke:none;fill-rule:evenodd;fill:rgb(16.862746%,74.901962%,68.235296%);fill-opacity:1;"
             d="M 84.050781 17.90625 C 84.160156 13.585938 82.066406 9.410156 78.253906 6.328125 C 74.433594 3.246094 69.210938 1.511719 63.761719 1.523438 L 17.035156 1.628906 C 9.804688 1.644531 3.136719 4.71875 -0.460938 9.691406 C -4.054688 14.664062 -4.03125 20.785156 -0.40625 25.742188 L 23.074219 57.789062 C 26.710938 62.746094 33.398438 65.789062 40.625 65.773438 C 47.855469 65.757812 54.523438 62.683594 58.121094 57.710938 L 81.371094 25.5625 C 83.058594 23.230469 83.976562 20.597656 84.050781 17.90625 Z M 84.050781 17.90625 "
             id="path4268" /></g></g><g
         clip-path="url(#clip5-4)"
         clip-rule="nonzero"
         id="g4278"><g
           clip-path="url(#clip6-2)"
           clip-rule="nonzero"
           id="g4276"><path
             style=" stroke:none;fill-rule:evenodd;fill:url(#linear2);"
             d="M 130.777344 17.804688 C 130.886719 13.484375 128.800781 9.308594 124.984375 6.226562 C 121.160156 3.140625 115.9375 1.410156 110.488281 1.417969 L 17.035156 1.628906 L 17.152344 33.726562 L 75.5625 33.597656 L 46.5 73.785156 L 81.597656 89.757812 L 128.097656 25.453125 C 129.785156 23.125 130.703125 20.492188 130.777344 17.804688 Z M 130.777344 17.804688 "
             id="path4274" /></g></g><g
         clip-path="url(#clip7-8)"
         clip-rule="nonzero"
         id="g4284"><g
           clip-path="url(#clip8-8)"
           clip-rule="nonzero"
           id="g4282"><path
             style="stroke:none;fill-rule:evenodd;fill:url(#linear7)"
             d="M 107.527344 49.953125 C 107.640625 45.632812 105.550781 41.457031 101.730469 38.375 C 97.914062 35.292969 92.6875 33.558594 87.242188 33.574219 L 40.511719 33.675781 C 33.285156 33.691406 26.617188 36.769531 23.019531 41.738281 C 19.425781 46.714844 19.445312 52.832031 23.074219 57.789062 L 46.554688 89.835938 C 50.183594 94.789062 56.875 97.835938 64.105469 97.820312 C 71.332031 97.804688 78 94.730469 81.597656 89.757812 L 104.851562 57.605469 C 106.539062 55.273438 107.457031 52.644531 107.527344 49.953125 Z M 107.527344 49.953125 "
             id="path4280" /></g></g><g
         clip-path="url(#clip9-0)"
         clip-rule="nonzero"
         id="g4290"><g
           clip-path="url(#clip10-2)"
           clip-rule="nonzero"
           id="g4288"><path
             style=" stroke:none;fill-rule:evenodd;fill:url(#linear4);"
             d="M 87.539062 2.335938 C 76.976562 2.292969 66.414062 2.332031 55.855469 2.320312 L 23.625 2.320312 C 21.132812 2.320312 17.078125 3.195312 13.519531 4.921875 C 9.960938 6.65625 6.894531 9.242188 5.648438 11.796875 C 4.824219 13.492188 3.996094 14.996094 3.519531 16.960938 C 3.230469 18.171875 3.070312 19.796875 3.132812 21.023438 C 3.269531 23.839844 3.972656 25.945312 5.136719 28.324219 L 27.652344 60.773438 C 30.148438 65.886719 34.753906 68.441406 39.742188 68.441406 C 44.726562 68.441406 49.332031 65.292969 51.832031 60.175781 L 67.941406 27.117188 C 68.128906 26.722656 68.308594 26.316406 68.46875 25.902344 C 71.207031 20.332031 73.847656 14.6875 76.691406 9.199219 C 79.160156 5.085938 83.289062 2.5 87.539062 2.335938 Z M 87.539062 2.335938 "
             id="path4286" /></g></g><g
         clip-path="url(#clip11-5)"
         clip-rule="nonzero"
         id="g4296"><g
           clip-path="url(#clip12-3)"
           clip-rule="nonzero"
           id="g4294"><path
             style=" stroke:none;fill-rule:evenodd;fill:url(#linear5);"
             d="M 22.886719 57.398438 C 30.753906 68.230469 38.714844 79.023438 46.621094 89.835938 C 51.574219 96.890625 63.640625 99.882812 72.765625 96.269531 C 77.492188 94.613281 80.777344 91.296875 83.121094 87.746094 C 87.332031 79.171875 80.761719 68.175781 69 66.207031 C 67.414062 65.628906 65.757812 65.703125 63.992188 65.722656 C 55.550781 65.695312 47.105469 65.855469 38.675781 65.699219 C 32.101562 65.21875 26.003906 62.015625 22.886719 57.398438 Z M 22.886719 57.398438 "
             id="path4292" /></g></g><g
         clip-path="url(#clip13-9)"
         clip-rule="nonzero"
         id="g4302"><g
           clip-path="url(#clip14-3)"
           clip-rule="nonzero"
           id="g4300"><path
             style=" stroke:none;fill-rule:evenodd;fill:rgb(16.862746%,74.901962%,68.235296%);fill-opacity:1;"
             d="M 84.050781 17.90625 C 84.160156 13.585938 82.066406 9.410156 78.253906 6.328125 C 74.433594 3.246094 69.210938 1.511719 63.761719 1.523438 L 17.035156 1.628906 C 9.804688 1.644531 3.136719 4.71875 -0.460938 9.691406 C -4.054688 14.664062 -4.03125 20.785156 -0.40625 25.742188 L 23.074219 57.789062 C 26.710938 62.746094 33.398438 65.789062 40.625 65.773438 C 47.855469 65.757812 54.523438 62.683594 58.121094 57.710938 L 81.371094 25.5625 C 83.058594 23.230469 83.976562 20.597656 84.050781 17.90625 Z M 84.050781 17.90625 "
             id="path4298" /></g></g><g
         clip-path="url(#clip15-8)"
         clip-rule="nonzero"
         id="g4308"><g
           clip-path="url(#clip16-6)"
           clip-rule="nonzero"
           id="g4306"><path
             style="stroke:none;fill-rule:evenodd;fill:url(#linear2)"
             d="M 130.777344 17.804688 C 130.886719 13.484375 128.800781 9.308594 124.984375 6.226562 C 121.160156 3.140625 115.9375 1.410156 110.488281 1.417969 L 17.035156 1.628906 L 17.152344 33.726562 L 75.5625 33.597656 L 46.5 73.785156 L 81.597656 89.757812 L 128.097656 25.453125 C 129.785156 23.125 130.703125 20.492188 130.777344 17.804688 Z M 130.777344 17.804688 "
             id="path4304" /></g></g><g
         clip-path="url(#clip17-1)"
         clip-rule="nonzero"
         id="g4314"><g
           clip-path="url(#clip18-4)"
           clip-rule="nonzero"
           id="g4312"><path
             style=" stroke:none;fill-rule:evenodd;fill:url(#linear7);"
             d="M 107.527344 49.953125 C 107.640625 45.632812 105.550781 41.457031 101.730469 38.375 C 97.914062 35.292969 92.6875 33.558594 87.242188 33.574219 L 40.511719 33.675781 C 33.285156 33.691406 26.617188 36.769531 23.019531 41.738281 C 19.425781 46.714844 19.445312 52.832031 23.074219 57.789062 L 46.554688 89.835938 C 50.183594 94.789062 56.875 97.835938 64.105469 97.820312 C 71.332031 97.804688 78 94.730469 81.597656 89.757812 L 104.851562 57.605469 C 106.539062 55.273438 107.457031 52.644531 107.527344 49.953125 Z M 107.527344 49.953125 "
             id="path4310" /></g></g><g
         clip-path="url(#clip19-8)"
         clip-rule="nonzero"
         id="g4320"><g
           clip-path="url(#clip20-6)"
           clip-rule="nonzero"
           id="g4318"><path
             style="stroke:none;fill-rule:evenodd;fill:url(#linear4)"
             d="M 87.539062 2.335938 C 76.976562 2.292969 66.414062 2.332031 55.855469 2.320312 L 23.625 2.320312 C 21.132812 2.320312 17.078125 3.195312 13.519531 4.921875 C 9.960938 6.65625 6.894531 9.242188 5.648438 11.796875 C 4.824219 13.492188 3.996094 14.996094 3.519531 16.960938 C 3.230469 18.171875 3.070312 19.796875 3.132812 21.023438 C 3.269531 23.839844 3.972656 25.945312 5.136719 28.324219 L 27.652344 60.773438 C 30.148438 65.886719 34.753906 68.441406 39.742188 68.441406 C 44.726562 68.441406 49.332031 65.292969 51.832031 60.175781 L 67.941406 27.117188 C 68.128906 26.722656 68.308594 26.316406 68.46875 25.902344 C 71.207031 20.332031 73.847656 14.6875 76.691406 9.199219 C 79.160156 5.085938 83.289062 2.5 87.539062 2.335938 Z M 87.539062 2.335938 "
             id="path4316" /></g></g></g><linearGradient
       id="linear1-6"
       gradientUnits="userSpaceOnUse"
       x1="-0.040162001"
       y1="0.99435699"
       x2="-0.040162001"
       y2="0.0054060002"
       gradientTransform="matrix(0,51.477591,-84.082726,0,106.03078,37.350773)"><stop
         offset="0"
         style="stop-opacity: 1; stop-color: rgb(66, 125, 161);"
         id="stop41-7" /><stop
         offset="0.019"
         style="stop-color: rgb(240, 240, 241);"
         id="stop43-5" /><stop
         offset="0.055"
         style="stop-opacity: 1; stop-color: rgb(66, 125, 161);"
         id="stop45-9" /><stop
         offset="0.207"
         style="stop-opacity: 1; stop-color: rgb(66, 125, 161);"
         id="stop47-5" /><stop
         offset="0.908"
         style="stop-opacity: 1; stop-color: rgb(66, 125, 161);"
         id="stop49-5" /><stop
         offset="0.986"
         style="stop-opacity: 1; stop-color: rgb(240, 240, 241);"
         id="stop51-7" /><stop
         offset="1"
         style="stop-opacity: 1; stop-color: rgb(66, 125, 161);"
         id="stop53-4" /></linearGradient><linearGradient
       inkscape:collect="always"
       xlink:href="#linearGradient9544"
       id="linearGradient9165"
       gradientUnits="userSpaceOnUse"
       gradientTransform="matrix(0,51.477591,-84.082726,0,106.03078,37.350773)"
       x1="-0.040162"
       y1="0.994357"
       x2="-0.040162"
       y2="0.005406" /><linearGradient
       inkscape:collect="always"
       xlink:href="#linear1"
       id="linearGradient4199"
       x1="39.50985"
       y1="20.251953"
       x2="88.451172"
       y2="20.251953"
       gradientUnits="userSpaceOnUse" /><linearGradient
       inkscape:collect="always"
       xlink:href="#linearGradient4826"
       id="linearGradient4828"
       x1="63.977543"
       y1="37.38036"
       x2="63.991207"
       y2="6.4651842"
       gradientUnits="userSpaceOnUse" /></defs><g
     id="surface449"><path
       style="fill:url(#radial0);fill-rule:nonzero;stroke:none"
       d="M 116.95703,90.761719 V 79.398438 c -7.28515,-2.0625 -11.89062,-2.644532 -14.20703,-7.097657 v -0.0039 c -2.32422,-4.46875 0.44141,-7.503906 3.73828,-13.035156 0.006,-0.275423 -0.006,-1.045611 -2.5e-4,-0.792521 2.5e-4,0.01127 -6.817788,-4.64131 -10.08178,-7.242642 -6.890625,2.609376 -10.738281,4.835938 -16.359375,2.976563 h -0.0039 C 74.441406,52.355469 73.707031,48.664062 71.132812,42.886719 H 56.867188 c -2.566407,5.75 -3.304688,9.464843 -8.910157,11.320312 h -0.0039 C 42.34375,56.0625 38.546875,53.859375 31.59375,51.226562 c -3.255726,2.594742 -10.082031,7.253907 -10.082248,7.261819 -0.0068,0.246551 -0.0067,0.504151 2.17e-4,0.773338 3.289062,5.511719 6.066406,8.558593 3.738281,13.035156 -2.328125,4.46875 -6.992188,5.054687 -14.207031,7.101563 v 11.363281 c 7.203125,2.042969 11.878906,2.636719 14.207031,7.101562 1.966601,3.788739 -3.738281,9.785159 -3.738281,9.785159 v 3.25 l 10.082031,8.03906 c 6.894531,-2.61328 10.742188,-4.83594 16.359375,-2.98047 h 0.0039 c 5.605469,1.85156 6.339844,5.55078 8.910157,11.32031 h 14.265624 c 2.566407,-5.7539 3.308594,-9.46093 8.945313,-11.33203 h 0.0039 c 5.566407,-1.83984 9.355469,0.35547 16.316407,2.99219 l 10.127434,-7.77082 -0.0415,-3.51434 c 0,0 -5.70233,-6.00592 -3.74219,-9.781246 2.32422,-4.46875 7.00781,-5.066406 14.21484,-7.109375 z M 64,99.144531 c -9.75,0 -17.652344,-6.296875 -17.652344,-14.0625 C 46.347656,77.3125 54.25,71.015625 64,71.015625 c 9.75,0 17.652344,6.296875 17.652344,14.066406 0,7.765625 -7.902344,14.0625 -17.652344,14.0625 z"
       id="path122"
       sodipodi:nodetypes="sccccsccccccccscccccccccccccccccccssssss" /><path
       style="fill:url(#radial1);fill-rule:nonzero;stroke:none;opacity:1"
       d="M 116.95703,88.476562 V 77.65625 C 109.67188,75.691406 105.06641,75.136719 102.75,70.894531 v -0.0039 c -2.32422,-4.253906 0.44141,-7.144531 3.73828,-12.410156 L 96.40625,50.828125 C 89.515625,53.3125 85.667969,55.433594 80.046875,53.664062 h -0.0039 C 74.441406,51.902344 73.707031,48.386719 71.132812,42.886719 H 56.867188 c -2.566407,5.472656 -3.304688,9.011719 -8.910157,10.777343 h -0.0039 C 42.34375,55.433594 38.546875,53.335938 31.59375,50.828125 l -10.082031,7.652344 c 3.289062,5.25 6.066406,8.148437 3.738281,12.410156 -2.328125,4.257813 -6.992188,4.816406 -14.207031,6.765625 v 10.820312 c 7.203125,1.941407 11.878906,2.507813 14.207031,6.761719 2.339844,4.292969 -0.503906,7.249999 -3.738281,12.410159 l 1.378184,1.04659 8.703847,6.60966 c 6.894531,-2.48828 10.742188,-4.60547 16.359375,-2.83594 h 0.0039 c 5.605469,1.76172 6.339844,5.28516 8.910157,10.77734 h 14.265624 c 2.566407,-5.47656 3.308594,-9.00781 8.945313,-10.78906 h 0.0039 c 5.566407,-1.7539 9.355469,0.33985 16.316407,2.85156 l 10.085944,-7.65625 c -3.28516,-5.23437 -6.06641,-8.144528 -3.74219,-12.410152 2.32422,-4.253907 7.00781,-4.820313 14.21484,-6.765626 z M 64,96.460938 c -9.75,0 -17.652344,-6 -17.652344,-13.394532 0,-7.398437 7.902344,-13.394531 17.652344,-13.394531 9.75,0 17.652344,5.996094 17.652344,13.394531 C 81.652344,90.460938 73.75,96.460938 64,96.460938 Z"
       id="path124"
       sodipodi:nodetypes="sccccccccccccccccccccccccccccccssssss" /><g
       clip-path="url(#clip1)"
       id="g174"
       inkscape:label="g174"
       style="display:inline;mix-blend-mode:normal;fill-rule:nonzero"
       transform="translate(-0.0107395)"><g
         clip-path="url(#clip2)"
         clip-rule="nonzero"
         id="g130"
         inkscape:label="g130"
         style="display:inline;fill-rule:nonzero"
         transform="translate(0,0.02489107)"><path
           style="fill:url(#linearGradient9165);fill-rule:nonzero;stroke:none"
           d="m 106.02734,48.113281 c 0.082,-2.308593 0.26563,-5.3125 -2.59765,-7.621093 -2.39453,-1.652344 -4.11719,-3.136719 -10.101565,-3.136719 H 79.847656 c -5.285156,0 -10.574218,0.0039 -15.859375,0 H 50.898438 c -5.417969,0 -10.832032,0.0039 -16.246094,0 -1.289063,-0.01953 -2.550782,0.121093 -3.75,0.378906 -0.01563,0.0039 -0.02344,0.0039 -0.03516,0.0078 -0.335938,0.07422 -0.667969,0.152343 -0.996094,0.246093 -0.28125,0.07813 -0.5625,0.167969 -0.835938,0.261719 -0.03516,0.0078 -0.05859,0.01953 -0.08984,0.02734 -0.132812,0.03906 -0.257812,0.08203 -0.390624,0.125 C 27.8125,38.679688 27.113281,39 26.464844,39.375 c -1.042969,0.59375 -1.933594,1.292969 -2.640625,2.082031 -0.1875,0.207031 -0.371094,0.421875 -0.535157,0.640625 -0.707031,0.929688 -1.152343,1.949219 -1.273437,3.015625 -0.0039,0.03125 -0.01172,0.0625 -0.01953,0.09766 -0.01172,0.128906 -0.01953,0.265624 -0.02734,0.394531 -0.01563,0.191406 -0.02344,0.382812 -0.01953,0.574219 0.0039,0.01172 0.0039,0.02734 0.0078,0.03906 0.01172,0.242188 -0.02734,2.390625 0.02344,2.628906 0.199219,1.15625 0.804687,0.363282 1.667969,1.375 l 0.117187,0.144532 c 0.253906,0.3125 0.519531,0.628906 0.796875,0.925781 v 0.0039 l 13.753906,16.085937 14.667969,17.160157 c 2.40625,2.808593 6.953125,4.460937 11.753906,4.273437 1.613281,-0.05469 3.210938,-0.3125 4.691407,-0.804687 1.222656,-0.363281 2.28125,-0.878907 3.222656,-1.488281 0.03906,-0.02344 0.08203,-0.05469 0.121094,-0.07813 0.207031,-0.140624 0.410156,-0.277343 0.609374,-0.425781 0.160157,-0.125 0.316407,-0.25 0.460938,-0.371093 0.113281,-0.09375 0.222656,-0.1875 0.328125,-0.285157 0.09375,-0.07813 0.183594,-0.160156 0.269531,-0.246093 0.5625,-0.527344 1.0625,-1.078126 1.511719,-1.648438 0.02344,-0.04687 0.04687,-0.08984 0.07031,-0.132812 L 86.476562,49.957031 c -2.484374,-3.960937 19.636718,9.59375 19.550778,-1.84375 z m 0,0"
           id="path128" /></g><g
         clip-path="url(#clip7)"
         clip-rule="nonzero"
         id="g136"
         inkscape:label="g136"
         style="display:inline;fill-rule:nonzero"><g
           clip-path="url(#clip8)"
           clip-rule="nonzero"
           id="g134"
           style="display:inline;fill-rule:nonzero"
           inkscape:label="g134"><path
             style="display:inline;opacity:1;fill:url(#gradient-0);fill-rule:nonzero;stroke:none;image-rendering:auto"
             d="M 107.52734,49.953125 C 107.64063,45.632812 105.55078,41.457031 101.73047,38.375 97.914062,35.292969 92.6875,33.558594 87.242188,33.574219 l -46.730469,0.101562 c -7.226563,0.01563 -13.894531,3.09375 -17.492188,8.0625 -3.59375,4.976563 -3.574219,11.09375 0.05469,16.050781 L 46.55469,89.835938 c 3.628906,4.953124 10.320312,8 17.550781,7.984374 C 71.332031,97.804688 78,94.730469 81.597656,89.757812 L 104.85156,57.605469 c 1.6875,-2.332031 2.60547,-4.960938 2.67578,-7.652344 z m 0,0"
             id="path132"
             inkscape:label="path132" /></g></g><g
         clip-path="url(#clip5)"
         clip-rule="nonzero"
         id="g144"
         style="fill-rule:nonzero"><g
           clip-path="url(#clip6)"
           clip-rule="nonzero"
           id="g142"
           style="fill-rule:nonzero" /></g><g
         clip-path="url(#clip9)"
         clip-rule="nonzero"
         id="g148"
         style="display:inline;fill-rule:nonzero"><g
           clip-path="url(#clip10)"
           clip-rule="nonzero"
           id="g146"
           style="display:inline;fill-rule:nonzero" /></g><g
         clip-path="url(#clip13)"
         clip-rule="nonzero"
         id="g158"
         style="display:inline;fill-rule:nonzero"><g
           clip-path="url(#clip14)"
           clip-rule="nonzero"
           id="g156"
           style="fill-rule:nonzero" /></g><g
         clip-path="url(#clip15)"
         clip-rule="nonzero"
         id="g162"
         style="display:inline;fill-rule:nonzero"><g
           clip-path="url(#clip16)"
           clip-rule="nonzero"
           id="g160"
           style="fill-rule:nonzero" /></g><g
         clip-path="url(#clip19)"
         clip-rule="nonzero"
         id="g172"
         style="display:inline;fill-rule:nonzero"><g
           clip-path="url(#clip20)"
           clip-rule="nonzero"
           id="g170"
           style="display:inline;fill-rule:nonzero" /></g></g><path
       style="fill:url(#linearGradient4199);fill-opacity:1;fill-rule:nonzero;stroke:none;stroke-width:0.964611"
       d="M 88.451171,37.378564 39.52539,37.332374 c 0,0 -0.01554,0.04949 -0.01554,-5.021018 V 12.309801 c 0,-5.070512 2.534717,-9.18446 5.657706,-9.18446 h 37.621963 c 3.126937,0 5.661653,4.113948 5.661653,9.18446 v 20.001553 c 0,5.070512 0,5.06721 -10e-7,5.06721 z"
       id="path4329-0"
       sodipodi:nodetypes="ccssssssc" /><path
       style="fill:url(#linearGradient4828);fill-opacity:1;fill-rule:nonzero;stroke:none;stroke-width:0.976979"
       d="m 88.476561,41.584217 -48.963555,-0.02191 c 0,0 -0.0032,0.02529 -0.0032,-5.173374 V 15.881797 c 0,-5.198678 2.536031,-9.416613 5.660641,-9.416613 H 82.81197 c 3.128559,0 5.66459,4.217935 5.66459,9.416613 v 20.507127 c 0,5.198678 -1e-6,5.195293 -1e-6,5.195293 z"
       id="path4329"
       sodipodi:nodetypes="ccsssssscc" /></g></svg>
