<?xml version="1.0" encoding="UTF-8"?>
<svg xmlns="http://www.w3.org/2000/svg" xmlns:xlink="http://www.w3.org/1999/xlink" width="128pt" height="128pt" viewBox="0 0 128 128" version="1.1">
<defs>
<radialGradient id="radial0" gradientUnits="userSpaceOnUse" cx="63.999996" cy="89.047478" fx="63.999996" fy="89.047478" r="52.956203" gradientTransform="matrix(1.000001,0,0,0.796791,-0.0000773185,14.129123)">
<stop offset="0.453515" style="stop-color:rgb(69.803923%,69.803923%,69.803923%);stop-opacity:1;"/>
<stop offset="1" style="stop-color:rgb(47.450981%,47.450981%,47.450981%);stop-opacity:1;"/>
</radialGradient>
<radialGradient id="radial1" gradientUnits="userSpaceOnUse" cx="64" cy="85.972267" fx="64" fy="85.972267" r="52.956207" gradientTransform="matrix(1,0,0,0.758736,-0.000002,17.835844)">
<stop offset="0" style="stop-color:rgb(75.686276%,75.686276%,75.686276%);stop-opacity:1;"/>
<stop offset="1" style="stop-color:rgb(65.490198%,65.490198%,65.490198%);stop-opacity:1;"/>
</radialGradient>
<linearGradient id="linear0" gradientUnits="userSpaceOnUse" x1="95.556961" y1="288.832336" x2="30.610176" y2="288.832336" gradientTransform="matrix(-0.771367,0,0,-2.645308,501.37558,1635.264404)">
<stop offset="0" style="stop-color:rgb(16.862746%,50.196081%,50.196081%);stop-opacity:1;"/>
<stop offset="0.0335631" style="stop-color:rgb(76.078433%,92.941177%,92.941177%);stop-opacity:1;"/>
<stop offset="0.0854104" style="stop-color:rgb(46.27451%,71.764708%,70.588237%);stop-opacity:1;"/>
<stop offset="0.227649" style="stop-color:rgb(16.470589%,50.588238%,48.627451%);stop-opacity:1;"/>
<stop offset="0.890786" style="stop-color:rgb(21.960784%,66.666669%,74.901962%);stop-opacity:1;"/>
<stop offset="0.945393" style="stop-color:rgb(71.764708%,85.09804%,98.823529%);stop-opacity:1;"/>
<stop offset="1" style="stop-color:rgb(18.82353%,56.862748%,52.549022%);stop-opacity:1;"/>
</linearGradient>
<filter id="alpha" filterUnits="objectBoundingBox" x="0%" y="0%" width="100%" height="100%">
  <feColorMatrix type="matrix" in="SourceGraphic" values="0 0 0 0 1 0 0 0 0 1 0 0 0 0 1 0 0 0 1 0"/>
</filter>
<mask id="mask0">
  <g filter="url(#alpha)">
<rect x="0" y="0" width="128" height="128" style="fill:rgb(0%,0%,0%);fill-opacity:0.929078;stroke:none;"/>
  </g>
</mask>
<clipPath id="clip2">
  <path d="M 21.945312 37 L 106.050781 37 L 106.050781 89 L 21.945312 89 Z M 21.945312 37 "/>
</clipPath>
<linearGradient id="linear1" gradientUnits="userSpaceOnUse" x1="-0.040162" y1="0.994357" x2="-0.040162" y2="0.005406" gradientTransform="matrix(0,51.477591,-84.082726,0,106.030785,37.350773)">
<stop offset="0" style="stop-color:rgb(16.862746%,56.078434%,53.725493%);stop-opacity:1;"/>
<stop offset="0.0186402" style="stop-color:rgb(59.215689%,85.882354%,72.941178%);stop-opacity:0.74902;"/>
<stop offset="0.0547227" style="stop-color:rgb(18.039216%,60.392159%,55.29412%);stop-opacity:1;"/>
<stop offset="0.206769" style="stop-color:rgb(18.039216%,60.392159%,55.29412%);stop-opacity:1;"/>
<stop offset="0.908214" style="stop-color:rgb(9.019608%,35.686275%,67.843139%);stop-opacity:1;"/>
<stop offset="0.97459" style="stop-color:rgb(39.215687%,62.7451%,90.980393%);stop-opacity:1;"/>
<stop offset="1" style="stop-color:rgb(7.058824%,28.627452%,54.901963%);stop-opacity:1;"/>
</linearGradient>
<clipPath id="clip3">
  <path d="M 21.945312 40.488281 L 84.390625 40.488281 L 84.390625 65.800781 L 21.945312 65.800781 Z M 21.945312 40.488281 "/>
</clipPath>
<clipPath id="clip4">
  <path d="M 106.050781 49.59375 C 106.128906 47.25 104.828125 44.988281 102.4375 43.3125 C 100.046875 41.636719 96.773438 40.695312 93.351562 40.695312 L 79.871094 40.695312 C 74.585938 40.695312 69.296875 40.699219 64.011719 40.695312 L 50.921875 40.695312 C 45.507812 40.695312 40.089844 40.699219 34.675781 40.695312 C 33.386719 40.675781 32.125 40.816406 30.921875 41.082031 C 30.910156 41.082031 30.902344 41.085938 30.886719 41.089844 C 30.554688 41.164062 30.222656 41.242188 29.894531 41.335938 C 29.613281 41.417969 29.332031 41.507812 29.054688 41.601562 C 29.027344 41.609375 29 41.625 28.964844 41.628906 C 28.835938 41.671875 28.710938 41.714844 28.582031 41.761719 C 27.839844 42.035156 27.136719 42.363281 26.484375 42.738281 C 25.445312 43.34375 24.558594 44.054688 23.847656 44.855469 C 23.65625 45.0625 23.480469 45.28125 23.3125 45.5 C 22.605469 46.441406 22.160156 47.476562 22.039062 48.554688 C 22.035156 48.585938 22.027344 48.621094 22.023438 48.65625 C 22.007812 48.789062 21.996094 48.921875 21.992188 49.054688 C 21.976562 49.25 21.964844 49.441406 21.972656 49.636719 C 21.976562 49.648438 21.976562 49.664062 21.980469 49.675781 C 21.992188 49.921875 22.015625 50.164062 22.066406 50.40625 C 22.265625 51.582031 22.8125 52.710938 23.671875 53.734375 L 23.792969 53.878906 C 24.039062 54.195312 24.304688 54.515625 24.585938 54.820312 L 38.339844 71.121094 L 53.011719 88.507812 C 55.414062 91.355469 59.960938 93.03125 64.761719 92.839844 C 66.375 92.785156 67.972656 92.527344 69.453125 92.023438 C 70.675781 91.660156 71.734375 91.132812 72.675781 90.519531 C 72.714844 90.492188 72.757812 90.464844 72.796875 90.4375 C 73.003906 90.296875 73.210938 90.15625 73.402344 90.003906 C 73.5625 89.882812 73.71875 89.757812 73.871094 89.628906 C 73.980469 89.535156 74.089844 89.441406 74.199219 89.34375 C 74.289062 89.261719 74.378906 89.179688 74.464844 89.09375 C 75.027344 88.5625 75.53125 88 75.972656 87.421875 C 76 87.378906 76.023438 87.332031 76.046875 87.289062 L 104.351562 53.734375 C 105.414062 52.472656 105.996094 51.046875 106.050781 49.59375 Z M 106.050781 49.59375 "/>
</clipPath>
<clipPath id="clip5">
  <path d="M 21.945312 40.488281 L 106.050781 40.488281 L 106.050781 90 L 21.945312 90 Z M 21.945312 40.488281 "/>
</clipPath>
<clipPath id="clip6">
  <path d="M 106.050781 49.59375 C 106.128906 47.25 104.828125 44.988281 102.4375 43.3125 C 100.046875 41.636719 96.773438 40.695312 93.351562 40.695312 L 79.871094 40.695312 C 74.585938 40.695312 69.296875 40.699219 64.011719 40.695312 L 50.921875 40.695312 C 45.507812 40.695312 40.089844 40.699219 34.675781 40.695312 C 33.386719 40.675781 32.125 40.816406 30.921875 41.082031 C 30.910156 41.082031 30.902344 41.085938 30.886719 41.089844 C 30.554688 41.164062 30.222656 41.242188 29.894531 41.335938 C 29.613281 41.417969 29.332031 41.507812 29.054688 41.601562 C 29.027344 41.609375 29 41.625 28.964844 41.628906 C 28.835938 41.671875 28.710938 41.714844 28.582031 41.761719 C 27.839844 42.035156 27.136719 42.363281 26.484375 42.738281 C 25.445312 43.34375 24.558594 44.054688 23.847656 44.855469 C 23.65625 45.0625 23.480469 45.28125 23.3125 45.5 C 22.605469 46.441406 22.160156 47.476562 22.039062 48.554688 C 22.035156 48.585938 22.027344 48.621094 22.023438 48.65625 C 22.007812 48.789062 21.996094 48.921875 21.992188 49.054688 C 21.976562 49.25 21.964844 49.441406 21.972656 49.636719 C 21.976562 49.648438 21.976562 49.664062 21.980469 49.675781 C 21.992188 49.921875 22.015625 50.164062 22.066406 50.40625 C 22.265625 51.582031 22.8125 52.710938 23.671875 53.734375 L 23.792969 53.878906 C 24.039062 54.195312 24.304688 54.515625 24.585938 54.820312 L 38.339844 71.121094 L 53.011719 88.507812 C 55.414062 91.355469 59.960938 93.03125 64.761719 92.839844 C 66.375 92.785156 67.972656 92.527344 69.453125 92.023438 C 70.675781 91.660156 71.734375 91.132812 72.675781 90.519531 C 72.714844 90.492188 72.757812 90.464844 72.796875 90.4375 C 73.003906 90.296875 73.210938 90.15625 73.402344 90.003906 C 73.5625 89.882812 73.71875 89.757812 73.871094 89.628906 C 73.980469 89.535156 74.089844 89.441406 74.199219 89.34375 C 74.289062 89.261719 74.378906 89.179688 74.464844 89.09375 C 75.027344 88.5625 75.53125 88 75.972656 87.421875 C 76 87.378906 76.023438 87.332031 76.046875 87.289062 L 104.351562 53.734375 C 105.414062 52.472656 105.996094 51.046875 106.050781 49.59375 Z M 106.050781 49.59375 "/>
</clipPath>
<linearGradient id="linear2" gradientUnits="userSpaceOnUse" x1="0.136364" y1="0.636831" x2="0.404698" y2="0.153269" gradientTransform="matrix(0.312866,88.270154,-113.688086,0.25303,130.725329,1.375911)">
<stop offset="0" style="stop-color:rgb(33.725491%,77.254903%,76.862746%);stop-opacity:1;"/>
<stop offset="1" style="stop-color:rgb(11.372549%,39.607844%,78.823531%);stop-opacity:1;"/>
</linearGradient>
<clipPath id="clip7">
  <path d="M 21.945312 40.488281 L 106.050781 40.488281 L 106.050781 92.855469 L 21.945312 92.855469 Z M 21.945312 40.488281 "/>
</clipPath>
<clipPath id="clip8">
  <path d="M 106.050781 49.59375 C 106.128906 47.25 104.828125 44.988281 102.4375 43.3125 C 100.046875 41.636719 96.773438 40.695312 93.351562 40.695312 L 79.871094 40.695312 C 74.585938 40.695312 69.296875 40.699219 64.011719 40.695312 L 50.921875 40.695312 C 45.507812 40.695312 40.089844 40.699219 34.675781 40.695312 C 33.386719 40.675781 32.125 40.816406 30.921875 41.082031 C 30.910156 41.082031 30.902344 41.085938 30.886719 41.089844 C 30.554688 41.164062 30.222656 41.242188 29.894531 41.335938 C 29.613281 41.417969 29.332031 41.507812 29.054688 41.601562 C 29.027344 41.609375 29 41.625 28.964844 41.628906 C 28.835938 41.671875 28.710938 41.714844 28.582031 41.761719 C 27.839844 42.035156 27.136719 42.363281 26.484375 42.738281 C 25.445312 43.34375 24.558594 44.054688 23.847656 44.855469 C 23.65625 45.0625 23.480469 45.28125 23.3125 45.5 C 22.605469 46.441406 22.160156 47.476562 22.039062 48.554688 C 22.035156 48.585938 22.027344 48.621094 22.023438 48.65625 C 22.007812 48.789062 21.996094 48.921875 21.992188 49.054688 C 21.976562 49.25 21.964844 49.441406 21.972656 49.636719 C 21.976562 49.648438 21.976562 49.664062 21.980469 49.675781 C 21.992188 49.921875 22.015625 50.164062 22.066406 50.40625 C 22.265625 51.582031 22.8125 52.710938 23.671875 53.734375 L 23.792969 53.878906 C 24.039062 54.195312 24.304688 54.515625 24.585938 54.820312 L 38.339844 71.121094 L 53.011719 88.507812 C 55.414062 91.355469 59.960938 93.03125 64.761719 92.839844 C 66.375 92.785156 67.972656 92.527344 69.453125 92.023438 C 70.675781 91.660156 71.734375 91.132812 72.675781 90.519531 C 72.714844 90.492188 72.757812 90.464844 72.796875 90.4375 C 73.003906 90.296875 73.210938 90.15625 73.402344 90.003906 C 73.5625 89.882812 73.71875 89.757812 73.871094 89.628906 C 73.980469 89.535156 74.089844 89.441406 74.199219 89.34375 C 74.289062 89.261719 74.378906 89.179688 74.464844 89.09375 C 75.027344 88.5625 75.53125 88 75.972656 87.421875 C 76 87.378906 76.023438 87.332031 76.046875 87.289062 L 104.351562 53.734375 C 105.414062 52.472656 105.996094 51.046875 106.050781 49.59375 Z M 106.050781 49.59375 "/>
</clipPath>
<linearGradient id="linear3" gradientUnits="userSpaceOnUse" x1="0.1875" y1="0.863331" x2="0.422119" y2="0.276785" gradientTransform="matrix(0.227081,64.196051,-87.19204,0.194423,107.473165,33.52556)">
<stop offset="0" style="stop-color:rgb(17.647059%,75.294119%,68.627453%);stop-opacity:1;"/>
<stop offset="1" style="stop-color:rgb(20.784314%,51.764709%,89.411765%);stop-opacity:1;"/>
</linearGradient>
<clipPath id="clip9">
  <path d="M 21.945312 40.488281 L 87.660156 40.488281 L 87.660156 68.511719 L 21.945312 68.511719 Z M 21.945312 40.488281 "/>
</clipPath>
<clipPath id="clip10">
  <path d="M 106.050781 49.59375 C 106.128906 47.25 104.828125 44.988281 102.4375 43.3125 C 100.046875 41.636719 96.773438 40.695312 93.351562 40.695312 L 79.871094 40.695312 C 74.585938 40.695312 69.296875 40.699219 64.011719 40.695312 L 50.921875 40.695312 C 45.507812 40.695312 40.089844 40.699219 34.675781 40.695312 C 33.386719 40.675781 32.125 40.816406 30.921875 41.082031 C 30.910156 41.082031 30.902344 41.085938 30.886719 41.089844 C 30.554688 41.164062 30.222656 41.242188 29.894531 41.335938 C 29.613281 41.417969 29.332031 41.507812 29.054688 41.601562 C 29.027344 41.609375 29 41.625 28.964844 41.628906 C 28.835938 41.671875 28.710938 41.714844 28.582031 41.761719 C 27.839844 42.035156 27.136719 42.363281 26.484375 42.738281 C 25.445312 43.34375 24.558594 44.054688 23.847656 44.855469 C 23.65625 45.0625 23.480469 45.28125 23.3125 45.5 C 22.605469 46.441406 22.160156 47.476562 22.039062 48.554688 C 22.035156 48.585938 22.027344 48.621094 22.023438 48.65625 C 22.007812 48.789062 21.996094 48.921875 21.992188 49.054688 C 21.976562 49.25 21.964844 49.441406 21.972656 49.636719 C 21.976562 49.648438 21.976562 49.664062 21.980469 49.675781 C 21.992188 49.921875 22.015625 50.164062 22.066406 50.40625 C 22.265625 51.582031 22.8125 52.710938 23.671875 53.734375 L 23.792969 53.878906 C 24.039062 54.195312 24.304688 54.515625 24.585938 54.820312 L 38.339844 71.121094 L 53.011719 88.507812 C 55.414062 91.355469 59.960938 93.03125 64.761719 92.839844 C 66.375 92.785156 67.972656 92.527344 69.453125 92.023438 C 70.675781 91.660156 71.734375 91.132812 72.675781 90.519531 C 72.714844 90.492188 72.757812 90.464844 72.796875 90.4375 C 73.003906 90.296875 73.210938 90.15625 73.402344 90.003906 C 73.5625 89.882812 73.71875 89.757812 73.871094 89.628906 C 73.980469 89.535156 74.089844 89.441406 74.199219 89.34375 C 74.289062 89.261719 74.378906 89.179688 74.464844 89.09375 C 75.027344 88.5625 75.53125 88 75.972656 87.421875 C 76 87.378906 76.023438 87.332031 76.046875 87.289062 L 104.351562 53.734375 C 105.414062 52.472656 105.996094 51.046875 106.050781 49.59375 Z M 106.050781 49.59375 "/>
</clipPath>
<linearGradient id="linear4" gradientUnits="userSpaceOnUse" x1="0.562523" y1="0.597858" x2="-0.308168" y2="0.473474" gradientTransform="matrix(0,66.123585,-84.41968,0,87.538666,2.317002)">
<stop offset="0" style="stop-color:rgb(100%,100%,100%);stop-opacity:0.4;"/>
<stop offset="1" style="stop-color:rgb(100%,100%,100%);stop-opacity:0;"/>
</linearGradient>
<clipPath id="clip11">
  <path d="M 22.28125 57 L 85 57 L 85 92.855469 L 22.28125 92.855469 Z M 22.28125 57 "/>
</clipPath>
<clipPath id="clip12">
  <path d="M 106.050781 49.59375 C 106.128906 47.25 104.828125 44.988281 102.4375 43.3125 C 100.046875 41.636719 96.773438 40.695312 93.351562 40.695312 L 79.871094 40.695312 C 74.585938 40.695312 69.296875 40.699219 64.011719 40.695312 L 50.921875 40.695312 C 45.507812 40.695312 40.089844 40.699219 34.675781 40.695312 C 33.386719 40.675781 32.125 40.816406 30.921875 41.082031 C 30.910156 41.082031 30.902344 41.085938 30.886719 41.089844 C 30.554688 41.164062 30.222656 41.242188 29.894531 41.335938 C 29.613281 41.417969 29.332031 41.507812 29.054688 41.601562 C 29.027344 41.609375 29 41.625 28.964844 41.628906 C 28.835938 41.671875 28.710938 41.714844 28.582031 41.761719 C 27.839844 42.035156 27.136719 42.363281 26.484375 42.738281 C 25.445312 43.34375 24.558594 44.054688 23.847656 44.855469 C 23.65625 45.0625 23.480469 45.28125 23.3125 45.5 C 22.605469 46.441406 22.160156 47.476562 22.039062 48.554688 C 22.035156 48.585938 22.027344 48.621094 22.023438 48.65625 C 22.007812 48.789062 21.996094 48.921875 21.992188 49.054688 C 21.976562 49.25 21.964844 49.441406 21.972656 49.636719 C 21.976562 49.648438 21.976562 49.664062 21.980469 49.675781 C 21.992188 49.921875 22.015625 50.164062 22.066406 50.40625 C 22.265625 51.582031 22.8125 52.710938 23.671875 53.734375 L 23.792969 53.878906 C 24.039062 54.195312 24.304688 54.515625 24.585938 54.820312 L 38.339844 71.121094 L 53.011719 88.507812 C 55.414062 91.355469 59.960938 93.03125 64.761719 92.839844 C 66.375 92.785156 67.972656 92.527344 69.453125 92.023438 C 70.675781 91.660156 71.734375 91.132812 72.675781 90.519531 C 72.714844 90.492188 72.757812 90.464844 72.796875 90.4375 C 73.003906 90.296875 73.210938 90.15625 73.402344 90.003906 C 73.5625 89.882812 73.71875 89.757812 73.871094 89.628906 C 73.980469 89.535156 74.089844 89.441406 74.199219 89.34375 C 74.289062 89.261719 74.378906 89.179688 74.464844 89.09375 C 75.027344 88.5625 75.53125 88 75.972656 87.421875 C 76 87.378906 76.023438 87.332031 76.046875 87.289062 L 104.351562 53.734375 C 105.414062 52.472656 105.996094 51.046875 106.050781 49.59375 Z M 106.050781 49.59375 "/>
</clipPath>
<linearGradient id="linear5" gradientUnits="userSpaceOnUse" x1="0.99036" y1="0.399412" x2="0.107737" y2="0.508042" gradientTransform="matrix(0.143818,40.500564,-61.426018,0.136748,84.311834,57.263839)">
<stop offset="0" style="stop-color:rgb(17.647059%,75.294119%,68.627453%);stop-opacity:1;"/>
<stop offset="1" style="stop-color:rgb(36.862746%,85.09804%,79.607844%);stop-opacity:1;"/>
</linearGradient>
<clipPath id="clip13">
  <path d="M 39.445312 3.066406 L 84.390625 3.066406 L 84.390625 50 L 39.445312 50 Z M 39.445312 3.066406 "/>
</clipPath>
<clipPath id="clip14">
  <path d="M 78.609375 49.621094 L 49.035156 49.621094 C 43.800781 49.621094 39.550781 44.921875 39.550781 39.132812 L 39.550781 13.550781 C 39.550781 7.765625 43.800781 3.066406 49.035156 3.066406 L 78.609375 3.066406 C 83.839844 3.066406 88.089844 7.765625 88.089844 13.550781 L 88.089844 39.132812 C 88.089844 44.921875 83.839844 49.621094 78.609375 49.621094 Z M 78.609375 49.621094 "/>
</clipPath>
<clipPath id="clip15">
  <path d="M 39.445312 3.066406 L 88.476562 3.066406 L 88.476562 50 L 39.445312 50 Z M 39.445312 3.066406 "/>
</clipPath>
<clipPath id="clip16">
  <path d="M 78.609375 49.621094 L 49.035156 49.621094 C 43.800781 49.621094 39.550781 44.921875 39.550781 39.132812 L 39.550781 13.550781 C 39.550781 7.765625 43.800781 3.066406 49.035156 3.066406 L 78.609375 3.066406 C 83.839844 3.066406 88.089844 7.765625 88.089844 13.550781 L 88.089844 39.132812 C 88.089844 44.921875 83.839844 49.621094 78.609375 49.621094 Z M 78.609375 49.621094 "/>
</clipPath>
<linearGradient id="linear6" gradientUnits="userSpaceOnUse" x1="0.136364" y1="0.636831" x2="0.404698" y2="0.153269" gradientTransform="matrix(0.312866,88.270154,-113.688086,0.25303,130.725329,1.375911)">
<stop offset="0" style="stop-color:rgb(33.725491%,77.254903%,76.862746%);stop-opacity:1;"/>
<stop offset="1" style="stop-color:rgb(11.372549%,39.607844%,78.823531%);stop-opacity:1;"/>
</linearGradient>
<clipPath id="clip17">
  <path d="M 39.445312 33.257812 L 88.476562 33.257812 L 88.476562 50 L 39.445312 50 Z M 39.445312 33.257812 "/>
</clipPath>
<clipPath id="clip18">
  <path d="M 78.609375 49.621094 L 49.035156 49.621094 C 43.800781 49.621094 39.550781 44.921875 39.550781 39.132812 L 39.550781 13.550781 C 39.550781 7.765625 43.800781 3.066406 49.035156 3.066406 L 78.609375 3.066406 C 83.839844 3.066406 88.089844 7.765625 88.089844 13.550781 L 88.089844 39.132812 C 88.089844 44.921875 83.839844 49.621094 78.609375 49.621094 Z M 78.609375 49.621094 "/>
</clipPath>
<linearGradient id="linear7" gradientUnits="userSpaceOnUse" x1="0.1875" y1="0.863331" x2="0.422119" y2="0.276785" gradientTransform="matrix(0.227081,64.196051,-87.19204,0.194423,107.473165,33.52556)">
<stop offset="0" style="stop-color:rgb(17.647059%,75.294119%,68.627453%);stop-opacity:1;"/>
<stop offset="1" style="stop-color:rgb(20.784314%,51.764709%,89.411765%);stop-opacity:1;"/>
</linearGradient>
<clipPath id="clip19">
  <path d="M 39.445312 3.066406 L 87.660156 3.066406 L 87.660156 50 L 39.445312 50 Z M 39.445312 3.066406 "/>
</clipPath>
<clipPath id="clip20">
  <path d="M 78.609375 49.621094 L 49.035156 49.621094 C 43.800781 49.621094 39.550781 44.921875 39.550781 39.132812 L 39.550781 13.550781 C 39.550781 7.765625 43.800781 3.066406 49.035156 3.066406 L 78.609375 3.066406 C 83.839844 3.066406 88.089844 7.765625 88.089844 13.550781 L 88.089844 39.132812 C 88.089844 44.921875 83.839844 49.621094 78.609375 49.621094 Z M 78.609375 49.621094 "/>
</clipPath>
<linearGradient id="linear8" gradientUnits="userSpaceOnUse" x1="0.562523" y1="0.597858" x2="-0.308168" y2="0.473474" gradientTransform="matrix(0,66.123585,-84.41968,0,87.538666,2.317002)">
<stop offset="0" style="stop-color:rgb(100%,100%,100%);stop-opacity:0.4;"/>
<stop offset="1" style="stop-color:rgb(100%,100%,100%);stop-opacity:0;"/>
</linearGradient>
<clipPath id="clip1">
  <rect x="0" y="0" width="128" height="128"/>
</clipPath>
<g id="surface486" clip-path="url(#clip1)">
<g clip-path="url(#clip2)" clip-rule="nonzero">
<path style=" stroke:none;fill-rule:evenodd;fill:url(#linear1);" d="M 106.027344 48.113281 C 106.109375 45.804688 106.292969 42.800781 103.429688 40.492188 C 101.035156 38.839844 99.3125 37.355469 93.328125 37.355469 L 79.847656 37.355469 C 74.5625 37.355469 69.273438 37.359375 63.988281 37.355469 L 50.898438 37.355469 C 45.480469 37.355469 40.066406 37.359375 34.652344 37.355469 C 33.363281 37.335938 32.101562 37.476562 30.902344 37.734375 C 30.886719 37.738281 30.878906 37.738281 30.867188 37.742188 C 30.53125 37.816406 30.199219 37.894531 29.871094 37.988281 C 29.589844 38.066406 29.308594 38.15625 29.035156 38.25 C 29 38.257812 28.976562 38.269531 28.945312 38.277344 C 28.8125 38.316406 28.6875 38.359375 28.554688 38.402344 C 27.8125 38.679688 27.113281 39 26.464844 39.375 C 25.421875 39.96875 24.53125 40.667969 23.824219 41.457031 C 23.636719 41.664062 23.453125 41.878906 23.289062 42.097656 C 22.582031 43.027344 22.136719 44.046875 22.015625 45.113281 C 22.011719 45.144531 22.003906 45.175781 21.996094 45.210938 C 21.984375 45.339844 21.976562 45.476562 21.96875 45.605469 C 21.953125 45.796875 21.945312 45.988281 21.949219 46.179688 C 21.953125 46.191406 21.953125 46.207031 21.957031 46.21875 C 21.96875 46.460938 21.929688 48.609375 21.980469 48.847656 C 22.179688 50.003906 22.785156 49.210938 23.648438 50.222656 L 23.765625 50.367188 C 24.019531 50.679688 24.285156 50.996094 24.5625 51.292969 L 24.5625 51.296875 L 38.316406 67.382812 L 52.984375 84.542969 C 55.390625 87.351562 59.9375 89.003906 64.738281 88.816406 C 66.351562 88.761719 67.949219 88.503906 69.429688 88.011719 C 70.652344 87.648438 71.710938 87.132812 72.652344 86.523438 C 72.691406 86.5 72.734375 86.46875 72.773438 86.445312 C 72.980469 86.304688 73.183594 86.167969 73.382812 86.019531 C 73.542969 85.894531 73.699219 85.769531 73.84375 85.648438 C 73.957031 85.554688 74.066406 85.460938 74.171875 85.363281 C 74.265625 85.285156 74.355469 85.203125 74.441406 85.117188 C 75.003906 84.589844 75.503906 84.039062 75.953125 83.46875 C 75.976562 83.421875 76 83.378906 76.023438 83.335938 L 86.476562 49.957031 C 83.992188 45.996094 106.113281 59.550781 106.027344 48.113281 Z M 106.027344 48.113281 "/>
</g>
<g clip-path="url(#clip3)" clip-rule="nonzero">
<g clip-path="url(#clip4)" clip-rule="nonzero">
<path style=" stroke:none;fill-rule:evenodd;fill:rgb(16.862746%,74.901962%,68.235296%);fill-opacity:1;" d="M 84.050781 17.90625 C 84.160156 13.585938 82.066406 9.410156 78.253906 6.328125 C 74.433594 3.246094 69.210938 1.511719 63.761719 1.523438 L 17.035156 1.628906 C 9.804688 1.644531 3.136719 4.71875 -0.460938 9.691406 C -4.054688 14.664062 -4.03125 20.785156 -0.40625 25.742188 L 23.074219 57.789062 C 26.710938 62.746094 33.398438 65.789062 40.625 65.773438 C 47.855469 65.757812 54.523438 62.683594 58.121094 57.710938 L 81.371094 25.5625 C 83.058594 23.230469 83.976562 20.597656 84.050781 17.90625 Z M 84.050781 17.90625 "/>
</g>
</g>
<g clip-path="url(#clip5)" clip-rule="nonzero">
<g clip-path="url(#clip6)" clip-rule="nonzero">
<path style=" stroke:none;fill-rule:evenodd;fill:url(#linear2);" d="M 130.777344 17.804688 C 130.886719 13.484375 128.800781 9.308594 124.984375 6.226562 C 121.160156 3.140625 115.9375 1.410156 110.488281 1.417969 L 17.035156 1.628906 L 17.152344 33.726562 L 75.5625 33.597656 L 46.5 73.785156 L 81.597656 89.757812 L 128.097656 25.453125 C 129.785156 23.125 130.703125 20.492188 130.777344 17.804688 Z M 130.777344 17.804688 "/>
</g>
</g>
<g clip-path="url(#clip7)" clip-rule="nonzero">
<g clip-path="url(#clip8)" clip-rule="nonzero">
<path style=" stroke:none;fill-rule:evenodd;fill:url(#linear3);" d="M 107.527344 49.953125 C 107.640625 45.632812 105.550781 41.457031 101.730469 38.375 C 97.914062 35.292969 92.6875 33.558594 87.242188 33.574219 L 40.511719 33.675781 C 33.285156 33.691406 26.617188 36.769531 23.019531 41.738281 C 19.425781 46.714844 19.445312 52.832031 23.074219 57.789062 L 46.554688 89.835938 C 50.183594 94.789062 56.875 97.835938 64.105469 97.820312 C 71.332031 97.804688 78 94.730469 81.597656 89.757812 L 104.851562 57.605469 C 106.539062 55.273438 107.457031 52.644531 107.527344 49.953125 Z M 107.527344 49.953125 "/>
</g>
</g>
<g clip-path="url(#clip9)" clip-rule="nonzero">
<g clip-path="url(#clip10)" clip-rule="nonzero">
<path style=" stroke:none;fill-rule:evenodd;fill:url(#linear4);" d="M 87.539062 2.335938 C 76.976562 2.292969 66.414062 2.332031 55.855469 2.320312 L 23.625 2.320312 C 21.132812 2.320312 17.078125 3.195312 13.519531 4.921875 C 9.960938 6.65625 6.894531 9.242188 5.648438 11.796875 C 4.824219 13.492188 3.996094 14.996094 3.519531 16.960938 C 3.230469 18.171875 3.070312 19.796875 3.132812 21.023438 C 3.269531 23.839844 3.972656 25.945312 5.136719 28.324219 L 27.652344 60.773438 C 30.148438 65.886719 34.753906 68.441406 39.742188 68.441406 C 44.726562 68.441406 49.332031 65.292969 51.832031 60.175781 L 67.941406 27.117188 C 68.128906 26.722656 68.308594 26.316406 68.46875 25.902344 C 71.207031 20.332031 73.847656 14.6875 76.691406 9.199219 C 79.160156 5.085938 83.289062 2.5 87.539062 2.335938 Z M 87.539062 2.335938 "/>
</g>
</g>
<g clip-path="url(#clip11)" clip-rule="nonzero">
<g clip-path="url(#clip12)" clip-rule="nonzero">
<path style=" stroke:none;fill-rule:evenodd;fill:url(#linear5);" d="M 22.886719 57.398438 C 30.753906 68.230469 38.714844 79.023438 46.621094 89.835938 C 51.574219 96.890625 63.640625 99.882812 72.765625 96.269531 C 77.492188 94.613281 80.777344 91.296875 83.121094 87.746094 C 87.332031 79.171875 80.761719 68.175781 69 66.207031 C 67.414062 65.628906 65.757812 65.703125 63.992188 65.722656 C 55.550781 65.695312 47.105469 65.855469 38.675781 65.699219 C 32.101562 65.21875 26.003906 62.015625 22.886719 57.398438 Z M 22.886719 57.398438 "/>
</g>
</g>
<g clip-path="url(#clip13)" clip-rule="nonzero">
<g clip-path="url(#clip14)" clip-rule="nonzero">
<path style=" stroke:none;fill-rule:evenodd;fill:rgb(16.862746%,74.901962%,68.235296%);fill-opacity:1;" d="M 84.050781 17.90625 C 84.160156 13.585938 82.066406 9.410156 78.253906 6.328125 C 74.433594 3.246094 69.210938 1.511719 63.761719 1.523438 L 17.035156 1.628906 C 9.804688 1.644531 3.136719 4.71875 -0.460938 9.691406 C -4.054688 14.664062 -4.03125 20.785156 -0.40625 25.742188 L 23.074219 57.789062 C 26.710938 62.746094 33.398438 65.789062 40.625 65.773438 C 47.855469 65.757812 54.523438 62.683594 58.121094 57.710938 L 81.371094 25.5625 C 83.058594 23.230469 83.976562 20.597656 84.050781 17.90625 Z M 84.050781 17.90625 "/>
</g>
</g>
<g clip-path="url(#clip15)" clip-rule="nonzero">
<g clip-path="url(#clip16)" clip-rule="nonzero">
<path style=" stroke:none;fill-rule:evenodd;fill:url(#linear6);" d="M 130.777344 17.804688 C 130.886719 13.484375 128.800781 9.308594 124.984375 6.226562 C 121.160156 3.140625 115.9375 1.410156 110.488281 1.417969 L 17.035156 1.628906 L 17.152344 33.726562 L 75.5625 33.597656 L 46.5 73.785156 L 81.597656 89.757812 L 128.097656 25.453125 C 129.785156 23.125 130.703125 20.492188 130.777344 17.804688 Z M 130.777344 17.804688 "/>
</g>
</g>
<g clip-path="url(#clip17)" clip-rule="nonzero">
<g clip-path="url(#clip18)" clip-rule="nonzero">
<path style=" stroke:none;fill-rule:evenodd;fill:url(#linear7);" d="M 107.527344 49.953125 C 107.640625 45.632812 105.550781 41.457031 101.730469 38.375 C 97.914062 35.292969 92.6875 33.558594 87.242188 33.574219 L 40.511719 33.675781 C 33.285156 33.691406 26.617188 36.769531 23.019531 41.738281 C 19.425781 46.714844 19.445312 52.832031 23.074219 57.789062 L 46.554688 89.835938 C 50.183594 94.789062 56.875 97.835938 64.105469 97.820312 C 71.332031 97.804688 78 94.730469 81.597656 89.757812 L 104.851562 57.605469 C 106.539062 55.273438 107.457031 52.644531 107.527344 49.953125 Z M 107.527344 49.953125 "/>
</g>
</g>
<g clip-path="url(#clip19)" clip-rule="nonzero">
<g clip-path="url(#clip20)" clip-rule="nonzero">
<path style=" stroke:none;fill-rule:evenodd;fill:url(#linear8);" d="M 87.539062 2.335938 C 76.976562 2.292969 66.414062 2.332031 55.855469 2.320312 L 23.625 2.320312 C 21.132812 2.320312 17.078125 3.195312 13.519531 4.921875 C 9.960938 6.65625 6.894531 9.242188 5.648438 11.796875 C 4.824219 13.492188 3.996094 14.996094 3.519531 16.960938 C 3.230469 18.171875 3.070312 19.796875 3.132812 21.023438 C 3.269531 23.839844 3.972656 25.945312 5.136719 28.324219 L 27.652344 60.773438 C 30.148438 65.886719 34.753906 68.441406 39.742188 68.441406 C 44.726562 68.441406 49.332031 65.292969 51.832031 60.175781 L 67.941406 27.117188 C 68.128906 26.722656 68.308594 26.316406 68.46875 25.902344 C 71.207031 20.332031 73.847656 14.6875 76.691406 9.199219 C 79.160156 5.085938 83.289062 2.5 87.539062 2.335938 Z M 87.539062 2.335938 "/>
</g>
</g>
</g>
</defs>
<g id="surface449">
<path style=" stroke:none;fill-rule:nonzero;fill:url(#radial0);" d="M 116.957031 90.761719 L 116.957031 79.398438 C 109.671875 77.335938 105.066406 76.753906 102.75 72.300781 L 102.75 72.296875 C 100.425781 67.828125 103.191406 64.792969 106.488281 59.261719 L 96.40625 51.226562 C 89.515625 53.835938 85.667969 56.0625 80.046875 54.203125 L 80.042969 54.203125 C 74.441406 52.355469 73.707031 48.664062 71.132812 42.886719 L 56.867188 42.886719 C 54.300781 48.636719 53.5625 52.351562 47.957031 54.207031 L 47.953125 54.207031 C 42.34375 56.0625 38.546875 53.859375 31.59375 51.226562 L 21.511719 59.261719 C 24.800781 64.773438 27.578125 67.820312 25.25 72.296875 C 22.921875 76.765625 18.257812 77.351562 11.042969 79.398438 L 11.042969 90.761719 C 18.246094 92.804688 22.921875 93.398438 25.25 97.863281 C 27.589844 102.371094 24.746094 105.480469 21.511719 110.898438 L 31.59375 118.9375 C 38.488281 116.324219 42.335938 114.101562 47.953125 115.957031 L 47.957031 115.957031 C 53.5625 117.808594 54.296875 121.507812 56.867188 127.277344 L 71.132812 127.277344 C 73.699219 121.523438 74.441406 117.816406 80.078125 115.945312 L 80.082031 115.945312 C 85.648438 114.105469 89.4375 116.300781 96.398438 118.9375 L 106.484375 110.902344 C 103.199219 105.40625 100.417969 102.347656 102.742188 97.871094 C 105.066406 93.402344 109.75 92.804688 116.957031 90.761719 Z M 64 99.144531 C 54.25 99.144531 46.347656 92.847656 46.347656 85.082031 C 46.347656 77.3125 54.25 71.015625 64 71.015625 C 73.75 71.015625 81.652344 77.3125 81.652344 85.082031 C 81.652344 92.847656 73.75 99.144531 64 99.144531 Z M 64 99.144531 "/>
<path style=" stroke:none;fill-rule:nonzero;fill:url(#radial1);" d="M 116.957031 88.476562 L 116.957031 77.65625 C 109.671875 75.691406 105.066406 75.136719 102.75 70.894531 L 102.75 70.890625 C 100.425781 66.636719 103.191406 63.746094 106.488281 58.480469 L 96.40625 50.828125 C 89.515625 53.3125 85.667969 55.433594 80.046875 53.664062 L 80.042969 53.664062 C 74.441406 51.902344 73.707031 48.386719 71.132812 42.886719 L 56.867188 42.886719 C 54.300781 48.359375 53.5625 51.898438 47.957031 53.664062 L 47.953125 53.664062 C 42.34375 55.433594 38.546875 53.335938 31.59375 50.828125 L 21.511719 58.480469 C 24.800781 63.730469 27.578125 66.628906 25.25 70.890625 C 22.921875 75.148438 18.257812 75.707031 11.042969 77.65625 L 11.042969 88.476562 C 18.246094 90.417969 22.921875 90.984375 25.25 95.238281 C 27.589844 99.53125 24.746094 102.488281 21.511719 107.648438 L 31.59375 115.304688 C 38.488281 112.816406 42.335938 110.699219 47.953125 112.46875 L 47.957031 112.46875 C 53.5625 114.230469 54.296875 117.753906 56.867188 123.246094 L 71.132812 123.246094 C 73.699219 117.769531 74.441406 114.238281 80.078125 112.457031 L 80.082031 112.457031 C 85.648438 110.703125 89.4375 112.796875 96.398438 115.308594 L 106.484375 107.652344 C 103.199219 102.417969 100.417969 99.507812 102.742188 95.242188 C 105.066406 90.988281 109.75 90.421875 116.957031 88.476562 Z M 64 96.460938 C 54.25 96.460938 46.347656 90.460938 46.347656 83.066406 C 46.347656 75.667969 54.25 69.671875 64 69.671875 C 73.75 69.671875 81.652344 75.667969 81.652344 83.066406 C 81.652344 90.460938 73.75 96.460938 64 96.460938 Z M 64 96.460938 "/>
<path style=" stroke:none;fill-rule:nonzero;fill:url(#linear0);" d="M 82.609375 42.394531 L 45.386719 42.394531 C 42.296875 42.394531 39.789062 37.933594 39.789062 32.425781 L 39.789062 10.699219 C 39.789062 5.191406 42.296875 0.722656 45.386719 0.722656 L 82.609375 0.722656 C 85.703125 0.722656 88.210938 5.191406 88.210938 10.699219 L 88.210938 32.425781 C 88.210938 37.933594 85.703125 42.394531 82.609375 42.394531 Z M 82.609375 42.394531 "/>
<use xlink:href="#surface486" mask="url(#mask0)"/>
</g>
</svg>
