<?xml version="1.0" encoding="UTF-8" standalone="no"?>
<!-- Created with Inkscape (http://www.inkscape.org/) -->

<svg
   width="48px"
   height="48px"
   id="svg3832"
   version="1.1"
   inkscape:version="1.2 (dc2aedaf03, 2022-05-15)"
   sodipodi:docname="App-image-logo-bw.svg"
   xmlns:inkscape="http://www.inkscape.org/namespaces/inkscape"
   xmlns:sodipodi="http://sodipodi.sourceforge.net/DTD/sodipodi-0.dtd"
   xmlns:xlink="http://www.w3.org/1999/xlink"
   xmlns="http://www.w3.org/2000/svg"
   xmlns:svg="http://www.w3.org/2000/svg"
   xmlns:rdf="http://www.w3.org/1999/02/22-rdf-syntax-ns#"
   xmlns:cc="http://creativecommons.org/ns#"
   xmlns:dc="http://purl.org/dc/elements/1.1/">
  <defs
     id="defs3834">
    <linearGradient
       inkscape:collect="always"
       id="linearGradient5866">
      <stop
         style="stop-color:#ffffff;stop-opacity:1;"
         offset="0"
         id="stop5862" />
      <stop
         style="stop-color:#ffffff;stop-opacity:0;"
         offset="1"
         id="stop5864" />
    </linearGradient>
    <linearGradient
       id="linearGradient3308-4-6-931-761-0">
      <stop
         id="stop2919-2"
         style="stop-color:#ffffff;stop-opacity:1"
         offset="0" />
      <stop
         id="stop2921-76"
         style="stop-color:#ffffff;stop-opacity:0"
         offset="1" />
    </linearGradient>
    <linearGradient
       id="linearGradient4222">
      <stop
         id="stop4224"
         style="stop-color:#ffffff;stop-opacity:1;"
         offset="0" />
      <stop
         id="stop4226"
         style="stop-color:#ffffff;stop-opacity:0"
         offset="1" />
    </linearGradient>
    <linearGradient
       id="linearGradient3308-4-6-931-761">
      <stop
         id="stop2919"
         style="stop-color:#ffffff;stop-opacity:1"
         offset="0" />
      <stop
         id="stop2921"
         style="stop-color:#ffffff;stop-opacity:0"
         offset="1" />
    </linearGradient>
    <linearGradient
       id="linearGradient3575">
      <stop
         id="stop3577"
         style="stop-color:#fafafa;stop-opacity:1"
         offset="0" />
      <stop
         id="stop3579"
         style="stop-color:#e6e6e6;stop-opacity:1"
         offset="1" />
    </linearGradient>
    <linearGradient
       id="linearGradient3993">
      <stop
         offset="0"
         style="stop-color:#a3c0d0;stop-opacity:1"
         id="stop3995" />
      <stop
         offset="1"
         style="stop-color:#427da1;stop-opacity:1"
         id="stop4001" />
    </linearGradient>
    <linearGradient
       id="linearGradient2508">
      <stop
         offset="0"
         style="stop-color:#2e4a5a;stop-opacity:1"
         id="stop2510" />
      <stop
         offset="1"
         style="stop-color:#6e8796;stop-opacity:1"
         id="stop2512" />
    </linearGradient>
    <radialGradient
       cx="4.9929786"
       cy="43.5"
       r="2.5"
       fx="4.9929786"
       fy="43.5"
       id="radialGradient2873-966-168"
       xlink:href="#linearGradient3688-166-749"
       gradientUnits="userSpaceOnUse"
       gradientTransform="matrix(2.003784,0,0,1.4,27.98813,-17.4)" />
    <linearGradient
       id="linearGradient3688-166-749">
      <stop
         id="stop2883"
         style="stop-color:#181818;stop-opacity:1"
         offset="0" />
      <stop
         id="stop2885"
         style="stop-color:#181818;stop-opacity:0"
         offset="1" />
    </linearGradient>
    <radialGradient
       cx="4.9929786"
       cy="43.5"
       r="2.5"
       fx="4.9929786"
       fy="43.5"
       id="radialGradient2875-742-326"
       xlink:href="#linearGradient3688-464-309"
       gradientUnits="userSpaceOnUse"
       gradientTransform="matrix(2.003784,0,0,1.4,-20.01187,-104.4)" />
    <linearGradient
       id="linearGradient3688-464-309">
      <stop
         id="stop2889"
         style="stop-color:#181818;stop-opacity:1"
         offset="0" />
      <stop
         id="stop2891"
         style="stop-color:#181818;stop-opacity:0"
         offset="1" />
    </linearGradient>
    <linearGradient
       x1="25.058096"
       y1="47.027729"
       x2="25.058096"
       y2="39.999443"
       id="linearGradient2877-634-617"
       xlink:href="#linearGradient3702-501-757"
       gradientUnits="userSpaceOnUse" />
    <linearGradient
       id="linearGradient3702-501-757">
      <stop
         id="stop2895"
         style="stop-color:#181818;stop-opacity:0"
         offset="0" />
      <stop
         id="stop2897"
         style="stop-color:#181818;stop-opacity:1"
         offset="0.5" />
      <stop
         id="stop2899"
         style="stop-color:#181818;stop-opacity:0"
         offset="1" />
    </linearGradient>
    <linearGradient
       inkscape:collect="always"
       xlink:href="#linearGradient5866"
       id="linearGradient5868"
       x1="4"
       y1="24.967439"
       x2="44"
       y2="24.967439"
       gradientUnits="userSpaceOnUse"
       gradientTransform="translate(0,-0.96743917)" />
  </defs>
  <sodipodi:namedview
     id="base"
     pagecolor="#ffffff"
     bordercolor="#666666"
     borderopacity="1.0"
     inkscape:pageopacity="0.0"
     inkscape:pageshadow="2"
     inkscape:zoom="7"
     inkscape:cx="-7.9285714"
     inkscape:cy="25.071429"
     inkscape:current-layer="layer1"
     showgrid="true"
     inkscape:grid-bbox="true"
     inkscape:document-units="px"
     inkscape:window-width="1920"
     inkscape:window-height="1011"
     inkscape:window-x="0"
     inkscape:window-y="0"
     inkscape:window-maximized="1"
     inkscape:showpageshadow="2"
     inkscape:pagecheckerboard="0"
     inkscape:deskcolor="#d1d1d1" />
  <metadata
     id="metadata3837">
    <rdf:RDF>
      <cc:Work
         rdf:about="">
        <dc:format>image/svg+xml</dc:format>
        <dc:type
           rdf:resource="http://purl.org/dc/dcmitype/StillImage" />
      </cc:Work>
    </rdf:RDF>
  </metadata>
  <g
     id="layer1"
     inkscape:label="Layer 1"
     inkscape:groupmode="layer">
    <rect
       style="fill:url(#linearGradient5868);fill-opacity:1;stroke:#000000;stroke-width:4.9;stroke-linecap:square;stroke-linejoin:miter;stroke-miterlimit:4;stroke-dasharray:none;stroke-dashoffset:0;stroke-opacity:1;paint-order:markers fill stroke"
       id="rect5505"
       y="4.5"
       x="4.5"
       ry="2.2322156"
       rx="2.2322156"
       height="39"
       width="39" />
    <rect
       style="fill:none;fill-opacity:1;stroke:#ffffff;stroke-width:4.09277;stroke-linecap:square;stroke-linejoin:miter;stroke-miterlimit:4;stroke-dasharray:none;stroke-dashoffset:0;stroke-opacity:1;paint-order:markers fill stroke"
       id="rect5505-7"
       y="7.7124557"
       x="7.7124557"
       ry="1.8644775"
       rx="1.8644775"
       height="32.575089"
       width="32.575089" />
    <path
       style="display:inline;overflow:visible;visibility:visible;fill:#000000;stroke:#ffffff;stroke-width:0;stroke-linecap:butt;stroke-linejoin:miter;stroke-miterlimit:4;stroke-dasharray:none;stroke-dashoffset:0;stroke-opacity:1;marker:none"
       id="path2777"
       d="M 28.926376,14.499229 24,20.210139 18.963089,14.532561 H 21.5 V 8.5325604 h 5 v 6.0000006 l 2.426376,-0.03333 z" />
    <path
       style="display:inline;overflow:visible;visibility:visible;fill:#000000;fill-opacity:1;stroke:#ffffff;stroke-width:0;stroke-dasharray:none;stroke-opacity:1;marker:none;enable-background:accumulate"
       id="path4243"
       d="m 23.4375,22.501311 c -0.01166,0.05381 -0.03125,0.100205 -0.03125,0.1875 v 2.28125 a 0.48185467,0.48185467 0 0 1 -0.375,0.46875 c -0.638467,0.145384 -1.238423,0.407111 -1.78125,0.75 a 0.48185467,0.48185467 0 0 1 -0.59375,-0.0625 l -1.625,-1.625 c -0.05335,-0.05335 -0.08355,-0.06633 -0.125,-0.09375 l -1.21875,1.21875 c 0.02742,0.04145 0.0404,0.07165 0.09375,0.125 l 1.625,1.625 a 0.48185467,0.48185467 0 0 1 0.0625,0.59375 c -0.342888,0.542826 -0.604615,1.142782 -0.75,1.78125 a 0.48185467,0.48185467 0 0 1 -0.46875,0.375 h -2.28125 c -0.08729,0 -0.133695,0.01959 -0.1875,0.03125 v 1.75 c 0.05381,0.01166 0.100205,0.03125 0.1875,0.03125 H 18.25 a 0.48185467,0.48185467 0 0 1 0.46875,0.375 c 0.145385,0.638468 0.407112,1.238423 0.75,1.78125 a 0.48185467,0.48185467 0 0 1 -0.0625,0.59375 l -1.625,1.625 c -0.05335,0.05335 -0.06633,0.08355 -0.09375,0.125 l 1.21875,1.21875 c 0.04145,-0.02742 0.07165,-0.0404 0.125,-0.09375 l 1.625,-1.625 a 0.48185467,0.48185467 0 0 1 0.59375,-0.0625 c 0.542827,0.342888 1.142781,0.604614 1.78125,0.75 a 0.48185467,0.48185467 0 0 1 0.375,0.46875 v 2.28125 c 0,0.08729 0.01959,0.133695 0.03125,0.1875 h 1.75 c 0.01166,-0.0538 0.03125,-0.100206 0.03125,-0.1875 v -2.28125 a 0.48185467,0.48185467 0 0 1 0.375,-0.46875 c 0.638469,-0.145386 1.238423,-0.407112 1.78125,-0.75 a 0.48185467,0.48185467 0 0 1 0.59375,0.0625 l 1.625,1.625 c 0.05335,0.05335 0.08355,0.06633 0.125,0.09375 l 1.21875,-1.21875 c -0.02742,-0.04145 -0.0404,-0.07165 -0.09375,-0.125 l -1.625,-1.625 a 0.48185467,0.48185467 0 0 1 -0.0625,-0.59375 c 0.342888,-0.542828 0.604615,-1.142783 0.75,-1.78125 a 0.48185467,0.48185467 0 0 1 0.46875,-0.375 h 2.28125 c 0.08729,0 0.133695,-0.01959 0.1875,-0.03125 v -1.75 c -0.0538,-0.01166 -0.100204,-0.03125 -0.1875,-0.03125 H 30.375 a 0.48185467,0.48185467 0 0 1 -0.46875,-0.375 c -0.145385,-0.638467 -0.407113,-1.238424 -0.75,-1.78125 a 0.48185467,0.48185467 0 0 1 0.0625,-0.59375 l 1.625,-1.625 c 0.05335,-0.05335 0.06633,-0.08355 0.09375,-0.125 l -1.21875,-1.21875 c -0.04145,0.02742 -0.07165,0.0404 -0.125,0.09375 l -1.625,1.625 a 0.48185467,0.48185467 0 0 1 -0.59375,0.0625 c -0.542827,-0.342889 -1.142783,-0.604616 -1.78125,-0.75 a 0.48185467,0.48185467 0 0 1 -0.375,-0.46875 v -2.28125 c 0,-0.0873 -0.01959,-0.133695 -0.03125,-0.1875 z m 0.875,5.28125 c 1.791829,0 3.25,1.458172 3.25,3.25 0,1.791828 -1.458171,3.25 -3.25,3.25 -1.791827,0 -3.25,-1.458172 -3.25,-3.25 0,-1.791828 1.458173,-3.25 3.25,-3.25 z" />
  </g>
</svg>
